<?xml version="1.0" encoding="UTF-8" standalone="no"?>
<!-- Generator: Adobe Illustrator 18.1.1, SVG Export Plug-In . SVG Version: 6.00 Build 0)  -->

<svg
   xmlns:dc="http://purl.org/dc/elements/1.1/"
   xmlns:cc="http://creativecommons.org/ns#"
   xmlns:rdf="http://www.w3.org/1999/02/22-rdf-syntax-ns#"
   xmlns:svg="http://www.w3.org/2000/svg"
   xmlns="http://www.w3.org/2000/svg"
   xmlns:sodipodi="http://sodipodi.sourceforge.net/DTD/sodipodi-0.dtd"
   xmlns:inkscape="http://www.inkscape.org/namespaces/inkscape"
   version="1.1"
   id="Layer_1"
   x="0px"
   y="0px"
   width="198px"
   height="99px"
   viewBox="0 0 198 99"
   enable-background="new 0 0 198 99"
   xml:space="preserve"
   inkscape:version="0.91 r13725"
   sodipodi:docname="buttons.svg"><metadata
     id="metadata327"><rdf:RDF><cc:Work
         rdf:about=""><dc:format>image/svg+xml</dc:format><dc:type
           rdf:resource="http://purl.org/dc/dcmitype/StillImage" /><dc:title /></cc:Work></rdf:RDF></metadata><defs
     id="defs325" /><sodipodi:namedview
     pagecolor="#ffffff"
     bordercolor="#666666"
     borderopacity="1"
     objecttolerance="10"
     gridtolerance="10"
     guidetolerance="10"
     inkscape:pageopacity="0"
     inkscape:pageshadow="2"
     inkscape:window-width="1366"
     inkscape:window-height="706"
     id="namedview323"
     showgrid="false"
     showguides="true"
     inkscape:guide-bbox="true"
     inkscape:zoom="4"
     inkscape:cx="104.99621"
     inkscape:cy="41.798658"
     inkscape:window-x="-8"
     inkscape:window-y="-8"
     inkscape:window-maximized="1"
     inkscape:current-layer="Layer_1" /><g
     id="g5"
     transform="translate(-0.12000084,0)"
     style="fill:#ffcc00;fill-opacity:1"><circle
       cx="16.620001"
       cy="16.608999"
       r="12"
       id="circle7"
       style="fill:#ffcc00;fill-opacity:1" /><polyline
       stroke-miterlimit="10"
       points="21.453,12.745 15.788,20.571    11.775,16.658  "
       id="polyline9"
       style="fill:#ffcc00;stroke:#655100;stroke-width:2.30489993;stroke-miterlimit:10;fill-opacity:1" /></g><g
     id="g11"
     transform="translate(-0.12000084,0)"><circle
       cx="16.620001"
       cy="49.465"
       r="12"
       id="circle13"
       style="fill:#ffffff" /><polyline
       stroke-miterlimit="10"
       points="21.453,45.601 15.788,53.427    11.775,49.514  "
       id="polyline15"
       style="fill:none;stroke:#006468;stroke-width:2.30489993;stroke-miterlimit:10" /></g><g
     id="g17"
     transform="translate(-0.12000084,0)"
     style="fill:#e9f4f8;fill-opacity:1"><circle
       cx="16.620001"
       cy="82.476997"
       r="12"
       id="circle19"
       style="fill:#e9f4f8;fill-opacity:1" /><polyline
       stroke-miterlimit="10"
       points="21.453,78.612 15.788,86.438    11.775,82.525  "
       id="polyline21"
       style="fill:#e9f4f8;stroke:#006468;stroke-width:2.30489993;stroke-miterlimit:10;fill-opacity:1" /></g><g
     id="g23"
     transform="translate(-0.26100159,0)"><circle
       cx="49.761002"
       cy="16.608999"
       r="12"
       id="circle25"
       style="fill:#ffcc00" /><polygon
       points="45.412,15.313 49.307,15.313 49.307,11.53 54.701,16.875 49.331,22.245 49.331,18.563 45.412,18.539 "
       id="polygon27"
       style="fill:#655100" /></g><g
     id="g29"
     transform="translate(-0.26100159,0)"><circle
       cx="49.761002"
       cy="49.465"
       r="12"
       id="circle31"
       style="fill:#ffffff" /><polygon
       points="45.412,48.169 49.307,48.169 49.307,44.386 54.701,49.731 49.331,55.101 49.331,51.419 45.412,51.394 "
       id="polygon33"
       style="fill:#006468" /></g><g
     id="g35"
     transform="translate(-0.26100159,0)"><circle
       cx="49.761002"
       cy="82.476997"
       r="12"
       id="circle37"
       style="fill:#4db7bb" /><polygon
       points="45.412,81.18 49.307,81.18 49.307,77.397 54.701,82.743 49.331,88.113 49.331,84.43 45.412,84.406 "
       id="polygon39"
       style="fill:#006468" /></g><g
     id="g41"
     transform="translate(-0.54399872,0)"><rect
       x="105.544"
       y="6.1090002"
       width="21"
       height="21"
       id="rect43"
       style="fill:#ffcc00" /><polygon
       points="114.44,19.083 114.44,15.116 110.586,15.116 116.032,9.621 121.502,15.091 117.751,15.091 117.726,19.083 "
       id="polygon45"
       style="fill:#655100" /><rect
       x="110.511"
       y="22.193001"
       width="1"
       height="1"
       id="rect47"
       style="fill:#655100" /><rect
       x="112.518"
       y="22.193001"
       width="1"
       height="1"
       id="rect49"
       style="fill:#655100" /><rect
       x="114.517"
       y="22.193001"
       width="1"
       height="1"
       id="rect51"
       style="fill:#655100" /><rect
       x="116.525"
       y="22.193001"
       width="1"
       height="1"
       id="rect53"
       style="fill:#655100" /><rect
       x="118.524"
       y="22.193001"
       width="1"
       height="1"
       id="rect55"
       style="fill:#655100" /><rect
       x="120.531"
       y="22.193001"
       width="1"
       height="1"
       id="rect57"
       style="fill:#655100" /></g><g
     id="g59"
     transform="translate(-0.68600464,0)"><rect
       x="138.686"
       y="6.1090002"
       width="21"
       height="21"
       id="rect61"
       style="fill:#ffcc00" /><polygon
       points="150.79,9.621 150.79,13.588 154.644,13.588 149.198,19.083 143.728,13.612 147.479,13.613 147.504,9.621 "
       id="polygon63"
       style="fill:#655100" /><rect
       x="143.65199"
       y="22.193001"
       width="1"
       height="1"
       id="rect65"
       style="fill:#655100" /><rect
       x="145.66"
       y="22.193001"
       width="1"
       height="1"
       id="rect67"
       style="fill:#655100" /><rect
       x="147.659"
       y="22.193001"
       width="1"
       height="1"
       id="rect69"
       style="fill:#655100" /><rect
       x="149.666"
       y="22.193001"
       width="1"
       height="1"
       id="rect71"
       style="fill:#655100" /><rect
       x="151.666"
       y="22.193001"
       width="1"
       height="1"
       id="rect73"
       style="fill:#655100" /><rect
       x="153.673"
       y="22.193001"
       width="1"
       height="1"
       id="rect75"
       style="fill:#655100" /></g><g
     id="g77"
     transform="translate(-0.54399872,0)"><rect
       x="105.544"
       y="38.965"
       width="21"
       height="21"
       id="rect79"
       style="fill:#ffffff" /><polygon
       points="114.44,51.939 114.44,47.971 110.586,47.971 116.032,42.476 121.502,47.947 117.751,47.947 117.726,51.939 "
       id="polygon81"
       style="fill:#006468" /><rect
       x="110.511"
       y="55.049"
       width="1"
       height="1"
       id="rect83"
       style="fill:#006468" /><rect
       x="112.518"
       y="55.049"
       width="1"
       height="1"
       id="rect85"
       style="fill:#006468" /><rect
       x="114.517"
       y="55.049"
       width="1"
       height="1"
       id="rect87"
       style="fill:#006468" /><rect
       x="116.525"
       y="55.049"
       width="1"
       height="1"
       id="rect89"
       style="fill:#006468" /><rect
       x="118.524"
       y="55.049"
       width="1"
       height="1"
       id="rect91"
       style="fill:#006468" /><rect
       x="120.531"
       y="55.049"
       width="1"
       height="1"
       id="rect93"
       style="fill:#006468" /></g><g
     id="g95"
     transform="translate(-0.68600464,0)"><rect
       x="138.686"
       y="38.965"
       width="21"
       height="21"
       id="rect97"
       style="fill:#ffffff" /><polygon
       points="150.79,42.476 150.79,46.444 154.644,46.444 149.198,51.939 143.728,46.468 147.479,46.468 147.504,42.477 "
       id="polygon99"
       style="fill:#006468" /><rect
       x="143.65199"
       y="55.049"
       width="1"
       height="1"
       id="rect101"
       style="fill:#006468" /><rect
       x="145.66"
       y="55.049"
       width="1"
       height="1"
       id="rect103"
       style="fill:#006468" /><rect
       x="147.659"
       y="55.049"
       width="1"
       height="1"
       id="rect105"
       style="fill:#006468" /><rect
       x="149.666"
       y="55.049"
       width="1"
       height="1"
       id="rect107"
       style="fill:#006468" /><rect
       x="151.666"
       y="55.049"
       width="1"
       height="1"
       id="rect109"
       style="fill:#006468" /><rect
       x="153.673"
       y="55.049"
       width="1"
       height="1"
       id="rect111"
       style="fill:#006468" /></g><g
     id="g113"
     transform="translate(-0.54399872,0)"><rect
       x="105.544"
       y="71.976997"
       width="21"
       height="21"
       id="rect115"
       style="fill:#4db7bb" /><polygon
       points="114.44,84.95 114.44,80.983 110.586,80.983 116.032,75.488 121.502,80.959 117.751,80.958 117.726,84.95 "
       id="polygon117"
       style="fill:#006468" /><rect
       x="110.511"
       y="88.060997"
       width="1"
       height="1"
       id="rect119"
       style="fill:#006468" /><rect
       x="112.518"
       y="88.060997"
       width="1"
       height="1"
       id="rect121"
       style="fill:#006468" /><rect
       x="114.517"
       y="88.060997"
       width="1"
       height="1"
       id="rect123"
       style="fill:#006468" /><rect
       x="116.525"
       y="88.060997"
       width="1"
       height="1"
       id="rect125"
       style="fill:#006468" /><rect
       x="118.524"
       y="88.060997"
       width="1"
       height="1"
       id="rect127"
       style="fill:#006468" /><rect
       x="120.531"
       y="88.060997"
       width="1"
       height="1"
       id="rect129"
       style="fill:#006468" /></g><g
     id="g131"
     transform="translate(-0.68600464,0)"><rect
       x="138.686"
       y="71.976997"
       width="21"
       height="21"
       id="rect133"
       style="fill:#4db7bb" /><polygon
       points="150.79,75.488 150.79,79.455 154.644,79.455 149.198,84.95 143.728,79.48 147.479,79.48 147.504,75.488 "
       id="polygon135"
       style="fill:#006468" /><rect
       x="143.65199"
       y="88.060997"
       width="1"
       height="1"
       id="rect137"
       style="fill:#006468" /><rect
       x="145.66"
       y="88.060997"
       width="1"
       height="1"
       id="rect139"
       style="fill:#006468" /><rect
       x="147.659"
       y="88.060997"
       width="1"
       height="1"
       id="rect141"
       style="fill:#006468" /><rect
       x="149.666"
       y="88.060997"
       width="1"
       height="1"
       id="rect143"
       style="fill:#006468" /><rect
       x="151.666"
       y="88.060997"
       width="1"
       height="1"
       id="rect145"
       style="fill:#006468" /><rect
       x="153.673"
       y="88.060997"
       width="1"
       height="1"
       id="rect147"
       style="fill:#006468" /></g><g
     id="g149"
     transform="translate(-0.40299988,0)"><path
       d="M 87.445,22.097"
       id="path151"
       inkscape:connector-curvature="0"
       style="fill:#655100" /><rect
       x="72.403"
       y="6.1090002"
       width="21"
       height="21"
       id="rect153"
       style="fill:#ffcc00" /><polygon
       points="83.44,10.094 84.441,10.094 88.421,14.079 88.421,15.057 87.445,15.057 83.44,15.057 "
       id="polygon155"
       style="fill:#655100" /><polygon
       points="78.404,11.093 78.404,22.097 87.445,22.097 87.445,14.87 88.421,14.87 88.421,23.134 77.399,23.134 77.399,10.094 83.562,10.094 83.568,11.093 "
       id="polygon157"
       style="fill:#655100" /><rect
       x="79.399002"
       y="12.111"
       width="0.995"
       height="0.99599999"
       id="rect159"
       style="fill:#655100" /><rect
       x="81.394997"
       y="12.111"
       width="0.995"
       height="0.99599999"
       id="rect161"
       style="fill:#655100" /><rect
       x="79.399002"
       y="14.103"
       width="0.995"
       height="0.99599999"
       id="rect163"
       style="fill:#655100" /><rect
       x="81.394997"
       y="14.103"
       width="0.995"
       height="0.99599999"
       id="rect165"
       style="fill:#655100" /><rect
       x="79.399002"
       y="16.115999"
       width="0.995"
       height="0.99599999"
       id="rect167"
       style="fill:#655100" /><rect
       x="81.394997"
       y="16.115999"
       width="0.995"
       height="0.99599999"
       id="rect169"
       style="fill:#655100" /><rect
       x="83.403"
       y="16.115999"
       width="0.995"
       height="0.99599999"
       id="rect171"
       style="fill:#655100" /><rect
       x="85.400002"
       y="16.115999"
       width="0.995"
       height="0.99599999"
       id="rect173"
       style="fill:#655100" /><rect
       x="79.399002"
       y="18.118"
       width="0.995"
       height="0.99599999"
       id="rect175"
       style="fill:#655100" /><rect
       x="81.394997"
       y="18.118"
       width="0.995"
       height="0.99599999"
       id="rect177"
       style="fill:#655100" /><rect
       x="79.399002"
       y="20.132"
       width="0.995"
       height="0.99599999"
       id="rect179"
       style="fill:#655100" /><rect
       x="81.394997"
       y="20.132"
       width="0.995"
       height="0.99599999"
       id="rect181"
       style="fill:#655100" /><rect
       x="83.403"
       y="18.118"
       width="0.995"
       height="0.99599999"
       id="rect183"
       style="fill:#655100" /><rect
       x="85.400002"
       y="18.118"
       width="0.995"
       height="0.99599999"
       id="rect185"
       style="fill:#655100" /><rect
       x="83.403"
       y="20.132"
       width="0.995"
       height="0.99599999"
       id="rect187"
       style="fill:#655100" /><rect
       x="85.400002"
       y="20.132"
       width="0.995"
       height="0.99599999"
       id="rect189"
       style="fill:#655100" /></g><g
     id="g191"
     transform="translate(-0.40299988,0)"><path
       d="M 87.445,54.953"
       id="path193"
       inkscape:connector-curvature="0"
       style="fill:#006468" /><rect
       x="72.403"
       y="38.965"
       width="21"
       height="21"
       id="rect195"
       style="fill:#ffffff" /><polygon
       points="83.44,42.95 84.441,42.95 88.421,46.935 88.421,47.912 87.445,47.912 83.44,47.912 "
       id="polygon197"
       style="fill:#006468" /><polygon
       points="78.404,43.949 78.404,54.953 87.445,54.953 87.445,47.726 88.421,47.726 88.421,55.99 77.399,55.99 77.399,42.95 83.586,42.95 83.599,43.951 "
       id="polygon199"
       style="fill:#006468" /><rect
       x="79.399002"
       y="44.966999"
       width="0.995"
       height="0.99599999"
       id="rect201"
       style="fill:#006468" /><rect
       x="81.394997"
       y="44.966999"
       width="0.995"
       height="0.99599999"
       id="rect203"
       style="fill:#006468" /><rect
       x="79.399002"
       y="46.959"
       width="0.995"
       height="0.99599999"
       id="rect205"
       style="fill:#006468" /><rect
       x="81.394997"
       y="46.959"
       width="0.995"
       height="0.99599999"
       id="rect207"
       style="fill:#006468" /><rect
       x="79.399002"
       y="48.972"
       width="0.995"
       height="0.99599999"
       id="rect209"
       style="fill:#006468" /><rect
       x="81.394997"
       y="48.972"
       width="0.995"
       height="0.99599999"
       id="rect211"
       style="fill:#006468" /><rect
       x="83.403"
       y="48.972"
       width="0.995"
       height="0.99599999"
       id="rect213"
       style="fill:#006468" /><rect
       x="85.400002"
       y="48.972"
       width="0.995"
       height="0.99599999"
       id="rect215"
       style="fill:#006468" /><rect
       x="79.399002"
       y="50.973999"
       width="0.995"
       height="0.99599999"
       id="rect217"
       style="fill:#006468" /><rect
       x="81.394997"
       y="50.973999"
       width="0.995"
       height="0.99599999"
       id="rect219"
       style="fill:#006468" /><rect
       x="79.399002"
       y="52.987"
       width="0.995"
       height="0.99599999"
       id="rect221"
       style="fill:#006468" /><rect
       x="81.394997"
       y="52.987"
       width="0.995"
       height="0.99599999"
       id="rect223"
       style="fill:#006468" /><rect
       x="83.403"
       y="50.973999"
       width="0.995"
       height="0.99599999"
       id="rect225"
       style="fill:#006468" /><rect
       x="85.400002"
       y="50.973999"
       width="0.995"
       height="0.99599999"
       id="rect227"
       style="fill:#006468" /><rect
       x="83.403"
       y="52.987"
       width="0.995"
       height="0.99599999"
       id="rect229"
       style="fill:#006468" /><rect
       x="85.400002"
       y="52.987"
       width="0.995"
       height="0.99599999"
       id="rect231"
       style="fill:#006468" /></g><g
     id="g233"
     transform="translate(-0.40299988,0)"><path
       d="M 87.445,87.965"
       id="path235"
       inkscape:connector-curvature="0"
       style="fill:#006468" /><rect
       x="72.403"
       y="71.976997"
       width="21"
       height="21"
       id="rect237"
       style="fill:#4db7bb" /><polygon
       points="83.44,75.961 84.441,75.961 88.421,79.946 88.421,80.924 87.445,80.924 83.44,80.924 "
       id="polygon239"
       style="fill:#006468" /><polygon
       points="78.404,76.961 78.404,87.965 87.445,87.965 87.445,80.738 88.421,80.738 88.421,89.002 77.399,89.002 77.399,75.961 83.586,75.961 83.599,76.963 "
       id="polygon241"
       style="fill:#006468" /><rect
       x="79.399002"
       y="77.977997"
       width="0.995"
       height="0.99599999"
       id="rect243"
       style="fill:#006468" /><rect
       x="81.394997"
       y="77.977997"
       width="0.995"
       height="0.99599999"
       id="rect245"
       style="fill:#006468" /><rect
       x="79.399002"
       y="79.970001"
       width="0.995"
       height="0.99599999"
       id="rect247"
       style="fill:#006468" /><rect
       x="81.394997"
       y="79.970001"
       width="0.995"
       height="0.99599999"
       id="rect249"
       style="fill:#006468" /><rect
       x="79.399002"
       y="81.984001"
       width="0.995"
       height="0.99599999"
       id="rect251"
       style="fill:#006468" /><rect
       x="81.394997"
       y="81.984001"
       width="0.995"
       height="0.99599999"
       id="rect253"
       style="fill:#006468" /><rect
       x="83.403"
       y="81.984001"
       width="0.995"
       height="0.99599999"
       id="rect255"
       style="fill:#006468" /><rect
       x="85.400002"
       y="81.984001"
       width="0.995"
       height="0.99599999"
       id="rect257"
       style="fill:#006468" /><rect
       x="79.399002"
       y="83.986"
       width="0.995"
       height="0.99599999"
       id="rect259"
       style="fill:#006468" /><rect
       x="81.394997"
       y="83.986"
       width="0.995"
       height="0.99599999"
       id="rect261"
       style="fill:#006468" /><rect
       x="79.399002"
       y="85.999001"
       width="0.995"
       height="0.99599999"
       id="rect263"
       style="fill:#006468" /><rect
       x="81.394997"
       y="85.999001"
       width="0.995"
       height="0.99599999"
       id="rect265"
       style="fill:#006468" /><rect
       x="83.403"
       y="83.986"
       width="0.995"
       height="0.99599999"
       id="rect267"
       style="fill:#006468" /><rect
       x="85.400002"
       y="83.986"
       width="0.995"
       height="0.99599999"
       id="rect269"
       style="fill:#006468" /><rect
       x="83.403"
       y="85.999001"
       width="0.995"
       height="0.99599999"
       id="rect271"
       style="fill:#006468" /><rect
       x="85.400002"
       y="85.999001"
       width="0.995"
       height="0.99599999"
       id="rect273"
       style="fill:#006468" /></g><g
     id="g275"
     transform="translate(-0.82800293,0)"><rect
       x="171.828"
       y="6.1090002"
       width="21"
       height="21"
       id="rect277"
       style="fill:#ffcc00" /><rect
       x="187.819"
       y="16.101"
       width="0.99900001"
       height="0.99800003"
       id="rect279"
       style="fill:#655100" /><rect
       x="189.825"
       y="16.101"
       width="0.99900001"
       height="0.99800003"
       id="rect281"
       style="fill:#655100" /><rect
       x="174.83299"
       y="16.101"
       width="0.99900001"
       height="0.99800003"
       id="rect283"
       style="fill:#655100" /><circle
       stroke-miterlimit="10"
       cx="181.80299"
       cy="16.101"
       r="4.0900002"
       id="circle285"
       style="fill:none;stroke:#655100;stroke-width:1.95439994;stroke-miterlimit:10" /><rect
       x="175.895"
       y="18.427999"
       transform="matrix(0.6915,0.7224,-0.7224,0.6915,69.5827,-121.6599)"
       width="2.6800001"
       height="4.4229999"
       id="rect287"
       style="fill:#655100" /><rect
       x="180.789"
       y="15.103"
       width="2.0280001"
       height="1.9960001"
       id="rect289"
       style="fill:#655100" /></g><g
     id="g291"
     transform="translate(-0.82800293,0)"><rect
       x="171.828"
       y="38.965"
       width="21"
       height="21"
       id="rect293"
       style="fill:#ffffff" /><rect
       x="187.819"
       y="48.957001"
       width="0.99900001"
       height="0.99800003"
       id="rect295"
       style="fill:#006468" /><rect
       x="189.825"
       y="48.957001"
       width="0.99900001"
       height="0.99800003"
       id="rect297"
       style="fill:#006468" /><rect
       x="174.83299"
       y="48.957001"
       width="0.99900001"
       height="0.99800003"
       id="rect299"
       style="fill:#006468" /><circle
       stroke-miterlimit="10"
       cx="181.80299"
       cy="48.957001"
       r="4.0900002"
       id="circle301"
       style="fill:none;stroke:#006468;stroke-width:1.95439994;stroke-miterlimit:10" /><rect
       x="175.895"
       y="51.284"
       transform="matrix(0.6915,0.7224,-0.7224,0.6915,93.3163,-111.5246)"
       width="2.6800001"
       height="4.4229999"
       id="rect303"
       style="fill:#006468" /><rect
       x="180.789"
       y="47.959"
       width="2.0280001"
       height="1.9960001"
       id="rect305"
       style="fill:#006468" /></g><g
     id="g307"
     transform="translate(-0.82800293,0)"><rect
       x="171.828"
       y="71.976997"
       width="21"
       height="21"
       id="rect309"
       style="fill:#4db7bb" /><rect
       x="187.819"
       y="81.969002"
       width="0.99900001"
       height="0.99800003"
       id="rect311"
       style="fill:#006468" /><rect
       x="189.825"
       y="81.969002"
       width="0.99900001"
       height="0.99800003"
       id="rect313"
       style="fill:#006468" /><rect
       x="174.83299"
       y="81.969002"
       width="0.99900001"
       height="0.99800003"
       id="rect315"
       style="fill:#006468" /><circle
       stroke-miterlimit="10"
       cx="181.80299"
       cy="81.969002"
       r="4.0900002"
       id="circle317"
       style="fill:none;stroke:#006468;stroke-width:1.95439994;stroke-miterlimit:10" /><rect
       x="175.895"
       y="84.295998"
       transform="matrix(0.6915,0.7224,-0.7224,0.6915,117.1625,-101.3412)"
       width="2.6800001"
       height="4.4229999"
       id="rect319"
       style="fill:#006468" /><rect
       x="180.789"
       y="80.970001"
       width="2.0280001"
       height="1.9960001"
       id="rect321"
       style="fill:#006468" /></g><path
     style="fill:#083e88;fill-opacity:1;stroke:none"
     d="m 77.003283,82.48624 0,-6.496543 3.03835,-0.005 c 1.671092,-0.0027 3.25711,-0.0014 3.524485,0.0031 l 0.486136,0.008 1.977689,1.974452 1.97769,1.974453 0,4.519038 0,4.519039 -5.502175,0 -5.502175,0 0,-6.496544 z m 10.054175,1.944544 0,-3.513437 -1.999787,-0.0115 -1.999786,-0.0115 0,-1.96619 0,-1.96619 -2.541165,0 -2.541165,0 0,5.502381 0,5.502383 4.540951,-0.01126 4.540952,-0.01126 0,-3.513437 z"
     id="path5733"
     inkscape:connector-curvature="0" /><path
     style="fill:#083e88;fill-opacity:1;stroke:none"
     d="m 81.024953,78.46457 0,-0.486135 0.464039,0 0.464039,0 0,0.486135 0,0.486136 -0.464039,0 -0.464039,0 0,-0.486136 z"
     id="path5735"
     inkscape:connector-curvature="0" /><path
     style="fill:#083e88;fill-opacity:1;stroke:none"
     d="m 78.992021,78.46457 0,-0.486135 0.486136,0 0.486136,0 0,0.486135 0,0.486136 -0.486136,0 -0.486136,0 0,-0.486136 z"
     id="path5737"
     inkscape:connector-curvature="0" /><path
     style="fill:#083e88;fill-opacity:1;stroke:none"
     d="m 78.992021,80.453308 0,-0.486136 0.486136,0 0.486136,0 0,0.486136 0,0.486136 -0.486136,0 -0.486136,0 0,-0.486136 z"
     id="path5739"
     inkscape:connector-curvature="0" /><path
     style="fill:#083e88;fill-opacity:1;stroke:none"
     d="m 78.992021,82.48624 0,-0.486136 0.486136,0 0.486136,0 0,0.486136 0,0.486136 -0.486136,0 -0.486136,0 0,-0.486136 z"
     id="path5741"
     inkscape:connector-curvature="0" /><path
     style="fill:#083e88;fill-opacity:1;stroke:none"
     d="m 78.992021,84.474978 0,-0.486136 0.486136,0 0.486136,0 0,0.486136 0,0.486136 -0.486136,0 -0.486136,0 0,-0.486136 z"
     id="path5743"
     inkscape:connector-curvature="0" /><path
     style="fill:#083e88;fill-opacity:1;stroke:none"
     d="m 78.992021,86.50791 0,-0.486136 0.486136,0 0.486136,0 0,0.486136 0,0.486136 -0.486136,0 -0.486136,0 0,-0.486136 z"
     id="path5745"
     inkscape:connector-curvature="0" /><path
     style="fill:#083e88;fill-opacity:1;stroke:none"
     d="m 81.024953,80.453308 0,-0.486136 0.464039,0 0.464039,0 0,0.486136 0,0.486136 -0.464039,0 -0.464039,0 0,-0.486136 z"
     id="path5747"
     inkscape:connector-curvature="0" /><path
     style="fill:#083e88;fill-opacity:1;stroke:none"
     d="m 81.024953,82.48624 0,-0.486136 0.464039,0 0.464039,0 0,0.486136 0,0.486136 -0.464039,0 -0.464039,0 0,-0.486136 z"
     id="path5749"
     inkscape:connector-curvature="0" /><path
     style="fill:#083e88;fill-opacity:1;stroke:none"
     d="m 81.024953,84.474978 0,-0.486136 0.464039,0 0.464039,0 0,0.486136 0,0.486136 -0.464039,0 -0.464039,0 0,-0.486136 z"
     id="path5751"
     inkscape:connector-curvature="0" /><path
     style="fill:#083e88;fill-opacity:1;stroke:none"
     d="m 81.024953,86.50791 0,-0.486136 0.464039,0 0.464039,0 0,0.486136 0,0.486136 -0.464039,0 -0.464039,0 0,-0.486136 z"
     id="path5753"
     inkscape:connector-curvature="0" /><path
     style="fill:#083e88;fill-opacity:1;stroke:none"
     d="m 83.013691,82.48624 0,-0.486136 0.486136,0 0.486136,0 0,0.486136 0,0.486136 -0.486136,0 -0.486136,0 0,-0.486136 z"
     id="path5755"
     inkscape:connector-curvature="0" /><path
     style="fill:#083e88;fill-opacity:1;stroke:none"
     d="m 83.013691,84.474978 0,-0.486136 0.486136,0 0.486136,0 0,0.486136 0,0.486136 -0.486136,0 -0.486136,0 0,-0.486136 z"
     id="path5757"
     inkscape:connector-curvature="0" /><path
     style="fill:#083e88;fill-opacity:1;stroke:none"
     d="m 83.013691,86.50791 0,-0.486136 0.486136,0 0.486136,0 0,0.486136 0,0.486136 -0.486136,0 -0.486136,0 0,-0.486136 z"
     id="path5759"
     inkscape:connector-curvature="0" /><path
     style="fill:#083e88;fill-opacity:1;stroke:none"
     d="m 85.002429,82.48624 0,-0.486136 0.486136,0 0.486136,0 0,0.486136 0,0.486136 -0.486136,0 -0.486136,0 0,-0.486136 z"
     id="path5761"
     inkscape:connector-curvature="0" /><path
     style="fill:#083e88;fill-opacity:1;stroke:none"
     d="m 85.002429,84.474978 0,-0.486136 0.486136,0 0.486136,0 0,0.486136 0,0.486136 -0.486136,0 -0.486136,0 0,-0.486136 z"
     id="path5763"
     inkscape:connector-curvature="0" /><path
     style="fill:#083e88;fill-opacity:1;stroke:none"
     d="m 85.002429,86.50791 0,-0.486136 0.486136,0 0.486136,0 0,0.486136 0,0.486136 -0.486136,0 -0.486136,0 0,-0.486136 z"
     id="path5765"
     inkscape:connector-curvature="0" /><path
     style="fill:#083e88;fill-opacity:1;stroke:none"
     d="m 113.90442,82.950279 0,-1.966641 -1.90403,0 c -1.13827,0 -1.89811,-0.01633 -1.8893,-0.0406 0.008,-0.02233 1.22082,-1.252504 2.69493,-2.733717 l 2.6802,-2.693116 2.71136,2.71162 2.71135,2.71162 -1.86707,0 -1.86707,0 0,1.988738 0,1.988738 -1.63519,0 -1.63518,0 0,-1.966641 z"
     id="path5767"
     inkscape:connector-curvature="0" /><path
     style="fill:#083e88;fill-opacity:1;stroke:none"
     d="m 109.97114,88.540842 0,-0.486136 0.48613,0 0.48614,0 0,0.486136 0,0.486136 -0.48614,0 -0.48613,0 0,-0.486136 z"
     id="path5769"
     inkscape:connector-curvature="0" /><path
     style="fill:#083e88;fill-opacity:1;stroke:none"
     d="m 112.00407,88.539347 0,-0.487631 0.47509,0.01254 0.47509,0.01254 0.0125,0.475088 0.0125,0.475087 -0.48763,0 -0.48763,0 0,-0.487631 z"
     id="path5771"
     inkscape:connector-curvature="0" /><path
     style="fill:#083e88;fill-opacity:1;stroke:none"
     d="m 113.99281,88.540842 0,-0.486136 0.48613,0 0.48614,0 0,0.486136 0,0.486136 -0.48614,0 -0.48613,0 0,-0.486136 z"
     id="path5773"
     inkscape:connector-curvature="0" /><path
     style="fill:#083e88;fill-opacity:1;stroke:none"
     d="m 115.98155,88.540842 0,-0.486136 0.48613,0 0.48614,0 0,0.486136 0,0.486136 -0.48614,0 -0.48613,0 0,-0.486136 z"
     id="path5775"
     inkscape:connector-curvature="0" /><path
     style="fill:#083e88;fill-opacity:1;stroke:none"
     d="m 118.01448,88.540842 0,-0.486136 0.46404,0 0.46404,0 0,0.486136 0,0.486136 -0.46404,0 -0.46404,0 0,-0.486136 z"
     id="path5777"
     inkscape:connector-curvature="0" /><path
     style="fill:#083e88;fill-opacity:1;stroke:none"
     d="m 120.00322,88.540842 0,-0.486136 0.48613,0 0.48614,0 0,0.486136 0,0.486136 -0.48614,0 -0.48613,0 0,-0.486136 z"
     id="path5779"
     inkscape:connector-curvature="0" /><path
     style="fill:#083e88;fill-opacity:1;stroke:none"
     d="m 145.76932,82.198978 -2.71768,-2.717942 1.88917,0 1.88917,0 0,-1.988737 0,-1.988738 1.63518,0 1.63518,0 0,1.988738 0,1.988737 1.90405,0 1.90405,0 -2.68849,2.717339 c -1.47868,1.494537 -2.6985,2.717611 -2.71073,2.717942 -0.0122,3.32e-4 -1.24518,-1.222471 -2.7399,-2.717339 z"
     id="path5781"
     inkscape:connector-curvature="0" /><path
     style="fill:#083e88;fill-opacity:1;stroke:none"
     d="m 142.98508,88.540842 0,-0.486136 0.48614,0 0.48613,0 0,0.486136 0,0.486136 -0.48613,0 -0.48614,0 0,-0.486136 z"
     id="path5783"
     inkscape:connector-curvature="0" /><path
     style="fill:#083e88;fill-opacity:1;stroke:none"
     d="m 144.97382,88.540842 0,-0.486136 0.48614,0 0.48613,0 0,0.486136 0,0.486136 -0.48613,0 -0.48614,0 0,-0.486136 z"
     id="path5785"
     inkscape:connector-curvature="0" /><path
     style="fill:#083e88;fill-opacity:1;stroke:none"
     d="m 147.00675,88.539347 0,-0.487631 0.47509,0.01254 0.47509,0.01254 0.0125,0.475088 0.0125,0.475087 -0.48763,0 -0.48763,0 0,-0.487631 z"
     id="path5787"
     inkscape:connector-curvature="0" /><path
     style="fill:#083e88;fill-opacity:1;stroke:none"
     d="m 148.99549,88.540842 0,-0.486136 0.48614,0 0.48613,0 0,0.486136 0,0.486136 -0.48613,0 -0.48614,0 0,-0.486136 z"
     id="path5789"
     inkscape:connector-curvature="0" /><path
     style="fill:#083e88;fill-opacity:1;stroke:none"
     d="m 150.98423,88.540842 0,-0.486136 0.48613,0 0.48614,0 0,0.486136 0,0.486136 -0.48614,0 -0.48613,0 0,-0.486136 z"
     id="path5791"
     inkscape:connector-curvature="0" /><path
     style="fill:#083e88;fill-opacity:1;stroke:none"
     d="m 153.01716,88.539347 0,-0.487631 0.47509,0.01254 0.47508,0.01254 0.0126,0.475088 0.0125,0.475087 -0.48763,0 -0.48763,0 0,-0.487631 z"
     id="path5793"
     inkscape:connector-curvature="0" /><path
     style="fill:#083e88;fill-opacity:1;stroke:none"
     d="m 174.81258,88.032143 -0.92132,-0.955225 0.17337,-0.167969 c 0.0953,-0.09238 0.69044,-0.662257 1.32241,-1.266386 0.63198,-0.604131 1.15516,-1.122244 1.16262,-1.151365 0.007,-0.02912 -0.0447,-0.168978 -0.1159,-0.310796 -0.84855,-1.68989 -0.60112,-3.868886 0.61056,-5.377089 1.8716,-2.329599 5.38753,-2.520566 7.49104,-0.406874 0.91263,0.91704 1.41517,2.05379 1.46819,3.321034 0.0603,1.441574 -0.39892,2.694819 -1.35721,3.703753 -1.51194,1.59185 -3.82218,2.040397 -5.79295,1.124737 l -0.39292,-0.182557 -1.05058,1.009035 c -0.57782,0.55497 -1.19129,1.145361 -1.36328,1.311982 l -0.31271,0.302946 -0.92132,-0.955226 z m 7.1152,-3.090078 c 1.14402,-0.383892 1.93036,-1.311788 2.13371,-2.517834 0.24019,-1.424454 -0.61618,-2.855592 -2.03325,-3.397907 -0.3541,-0.135515 -0.38722,-0.139906 -1.05063,-0.139278 -0.62836,5.94e-4 -0.71182,0.01031 -1.00918,0.117422 -0.48632,0.175192 -0.78458,0.370232 -1.20497,0.787949 -0.30492,0.302988 -0.41626,0.451556 -0.56303,0.751301 -0.30762,0.62822 -0.41459,1.244768 -0.32061,1.847875 0.20894,1.34086 1.13246,2.332989 2.45697,2.639495 0.42257,0.09779 1.15669,0.05671 1.59099,-0.08902 z"
     id="path5795"
     inkscape:connector-curvature="0" /><path
     style="fill:#083e88;fill-opacity:1;stroke:none"
     d="m 179.96114,81.978837 0,-0.995199 1.01731,0 1.01731,0 -0.0119,0.983321 -0.0119,0.98332 -1.00541,0.01188 -1.00542,0.01188 0,-0.995199 z"
     id="path5797"
     inkscape:connector-curvature="0" /><path
     style="fill:#083e88;fill-opacity:1;stroke:none"
     d="m 173.99493,82.48624 0,-0.486136 0.50823,0 0.50823,0 0,0.486136 0,0.486136 -0.50823,0 -0.50823,0 0,-0.486136 z"
     id="path5799"
     inkscape:connector-curvature="0" /><path
     style="fill:#083e88;fill-opacity:1;stroke:none"
     d="m 187.01748,82.942913 c -0.0162,-0.0162 -0.0295,-0.234965 -0.0295,-0.486136 l 0,-0.456673 0.48614,0 0.48613,0 0,0.486136 0,0.486136 -0.45667,0 c -0.25117,0 -0.46993,-0.01326 -0.48613,-0.02946 z"
     id="path5801"
     inkscape:connector-curvature="0" /><path
     style="fill:#083e88;fill-opacity:1;stroke:none"
     d="m 189.02094,82.48624 0,-0.486136 0.48614,0 0.48614,0 0,0.486136 0,0.486136 -0.48614,0 -0.48614,0 0,-0.486136 z"
     id="path5803"
     inkscape:connector-curvature="0" /><path
     style="fill:#083e88;fill-opacity:1;stroke:none"
     d="m 49.09232,86.260688 0,-1.816024 -0.736263,-0.02904 c -0.404944,-0.01597 -1.289932,-0.02904 -1.96664,-0.02904 l -1.230379,0 0,-1.59099 0,-1.590991 1.944069,0 1.944069,0 0.01152,-1.881145 0.01152,-1.881144 2.673747,2.651014 2.673748,2.651015 -2.662699,2.666181 -2.662699,2.666182 0,-1.816024 z"
     id="path5805"
     inkscape:connector-curvature="0" /><path
     style="fill:#083e88;fill-opacity:1;stroke:none"
     d="m 13.333447,85.752332 c -2.010833,-1.966309 -2.434492,-2.400899 -2.400378,-2.462312 0.02278,-0.04102 0.378063,-0.409717 0.789509,-0.819335 l 0.748084,-0.74476 1.07777,1.050937 c 0.592774,0.578015 1.278304,1.247586 1.523399,1.487934 l 0.445629,0.436998 2.426992,-3.360278 c 1.334847,-1.848153 2.448544,-3.355937 2.474884,-3.350631 0.108835,0.02192 1.819371,1.294842 1.794594,1.335472 -0.125364,0.205575 -6.384988,8.816379 -6.408228,8.815224 -0.01675,-8.31e-4 -1.129262,-1.075994 -2.472255,-2.389249 z"
     id="path5807"
     inkscape:connector-curvature="0" /><path
     style="fill:#083e88;fill-opacity:1;stroke:none"
     d="m 13.764416,53.159997 c -1.105959,-1.080982 -2.20678,-2.160995 -2.446269,-2.40003 l -0.435434,-0.434609 0.788988,-0.805068 0.788987,-0.805068 1.524305,1.482655 c 1.182395,1.150087 1.535854,1.470529 1.575791,1.428597 0.02832,-0.02973 1.100132,-1.505837 2.381811,-3.280233 1.281679,-1.774396 2.363614,-3.261602 2.4043,-3.304902 0.07032,-0.07483 0.118214,-0.04674 0.968645,0.568082 0.492069,0.355745 0.888639,0.670712 0.881268,0.699926 -0.01958,0.0776 -6.357553,8.821123 -6.392239,8.818386 -0.01613,-0.0013 -0.934194,-0.886754 -2.040153,-1.967736 z"
     id="path5809"
     inkscape:connector-curvature="0" /><path
     style="fill:#083e88;fill-opacity:1;stroke:none"
     d="m 49.09232,53.2476 0,-1.816064 -0.66994,-0.029 c -0.368466,-0.01595 -1.253455,-0.029 -1.96664,-0.029 l -1.296702,0 0,-1.59099 0,-1.590991 1.944069,0 1.944069,0 0.01152,-1.87441 0.01152,-1.87441 2.673747,2.644561 2.673748,2.644562 -2.662699,2.6659 -2.662699,2.6659 0,-1.816064 z"
     id="path5811"
     inkscape:connector-curvature="0" /><path
     style="fill:#083e88;fill-opacity:1;stroke:none"
     d="m 77.02154,49.473192 0,-6.496543 3.502572,0 3.502572,0 1.974004,1.977689 1.974003,1.977689 0.0095,0.486136 c 0.0052,0.267375 0.0068,2.300859 0.0035,4.518855 l -0.006,4.032718 -5.480078,0 -5.480077,0 0,-6.496544 z m 10.032077,1.944544 0,-3.535534 -1.988738,0 -1.988738,0 0,-1.966641 0,-1.96664 -2.541165,0 -2.541165,0 0,5.502174 0,5.502175 4.529903,0 4.529903,0 0,-3.535534 z"
     id="path5813"
     inkscape:connector-curvature="0" /><path
     style="fill:#083e88;fill-opacity:1;stroke:none"
     d="m 80.999015,45.451523 0,-0.486136 0.486136,0 0.486136,0 0,0.486136 0,0.486135 -0.486136,0 -0.486136,0 0,-0.486135 z"
     id="path5815"
     inkscape:connector-curvature="0" /><path
     style="fill:#083e88;fill-opacity:1;stroke:none"
     d="m 79.010277,45.451523 0,-0.486136 0.486136,0 0.486136,0 0,0.486136 0,0.486135 -0.486136,0 -0.486136,0 0,-0.486135 z"
     id="path5817"
     inkscape:connector-curvature="0" /><path
     style="fill:#083e88;fill-opacity:1;stroke:none"
     d="m 79.010277,47.462357 0,-0.464038 0.486136,0 0.486136,0 0,0.464038 0,0.464039 -0.486136,0 -0.486136,0 0,-0.464039 z"
     id="path5819"
     inkscape:connector-curvature="0" /><path
     style="fill:#083e88;fill-opacity:1;stroke:none"
     d="m 80.999015,47.462357 0,-0.464038 0.486136,0 0.486136,0 0,0.464038 0,0.464039 -0.486136,0 -0.486136,0 0,-0.464039 z"
     id="path5821"
     inkscape:connector-curvature="0" /><path
     style="fill:#083e88;fill-opacity:1;stroke:none"
     d="m 79.010277,49.473192 0,-0.486136 0.486136,0 0.486136,0 0,0.486136 0,0.486136 -0.486136,0 -0.486136,0 0,-0.486136 z"
     id="path5823"
     inkscape:connector-curvature="0" /><path
     style="fill:#083e88;fill-opacity:1;stroke:none"
     d="m 80.999015,49.473192 0,-0.486136 0.486136,0 0.486136,0 0,0.486136 0,0.486136 -0.486136,0 -0.486136,0 0,-0.486136 z"
     id="path5825"
     inkscape:connector-curvature="0" /><path
     style="fill:#083e88;fill-opacity:1;stroke:none"
     d="m 79.010277,51.46193 0,-0.486136 0.486136,0 0.486136,0 0,0.486136 0,0.486136 -0.486136,0 -0.486136,0 0,-0.486136 z"
     id="path5827"
     inkscape:connector-curvature="0" /><path
     style="fill:#083e88;fill-opacity:1;stroke:none"
     d="m 80.999015,51.46193 0,-0.486136 0.486136,0 0.486136,0 0,0.486136 0,0.486136 -0.486136,0 -0.486136,0 0,-0.486136 z"
     id="path5829"
     inkscape:connector-curvature="0" /><path
     style="fill:#083e88;fill-opacity:1;stroke:none"
     d="m 79.010277,53.494862 0,-0.486136 0.486136,0 0.486136,0 0,0.486136 0,0.486136 -0.486136,0 -0.486136,0 0,-0.486136 z"
     id="path5831"
     inkscape:connector-curvature="0" /><path
     style="fill:#083e88;fill-opacity:1;stroke:none"
     d="m 80.999015,53.494862 0,-0.486136 0.486136,0 0.486136,0 0,0.486136 0,0.486136 -0.486136,0 -0.486136,0 0,-0.486136 z"
     id="path5833"
     inkscape:connector-curvature="0" /><path
     style="fill:#083e88;fill-opacity:1;stroke:none"
     d="m 83.031947,51.46193 0,-0.486136 0.464039,0 0.464039,0 0,0.486136 0,0.486136 -0.464039,0 -0.464039,0 0,-0.486136 z"
     id="path5835"
     inkscape:connector-curvature="0" /><path
     style="fill:#083e88;fill-opacity:1;stroke:none"
     d="m 83.031947,49.473192 0,-0.486136 0.464039,0 0.464039,0 0,0.486136 0,0.486136 -0.464039,0 -0.464039,0 0,-0.486136 z"
     id="path5839"
     inkscape:connector-curvature="0" /><path
     style="fill:#083e88;fill-opacity:1;stroke:none"
     d="m 85.020685,49.473192 0,-0.486136 0.486136,0 0.486136,0 0,0.486136 0,0.486136 -0.486136,0 -0.486136,0 0,-0.486136 z"
     id="path5841"
     inkscape:connector-curvature="0" /><path
     style="fill:#083e88;fill-opacity:1;stroke:none"
     d="m 85.020685,51.46193 0,-0.486136 0.486136,0 0.486136,0 0,0.486136 0,0.486136 -0.486136,0 -0.486136,0 0,-0.486136 z"
     id="path5843"
     inkscape:connector-curvature="0" /><path
     style="fill:#083e88;fill-opacity:1;stroke:none"
     d="m 85.020685,53.494862 0,-0.486136 0.486136,0 0.486136,0 0,0.486136 0,0.486136 -0.486136,0 -0.486136,0 0,-0.486136 z"
     id="path5845"
     inkscape:connector-curvature="0" /><path
     style="fill:#083e88;fill-opacity:1;stroke:none"
     d="m 83.031947,53.494862 0,-0.486136 0.464039,0 0.464039,0 0,0.486136 0,0.486136 -0.464039,0 -0.464039,0 0,-0.486136 z"
     id="path5847"
     inkscape:connector-curvature="0" /><path
     style="fill:#083e88;fill-opacity:1;stroke:none"
     d="m 113.91978,49.937231 0,-1.966641 -1.92649,0 -1.9265,0 2.71094,-2.737939 2.71095,-2.73794 2.70704,2.704794 2.70704,2.704794 -1.8563,0.01153 -1.85631,0.01153 -2.2e-4,1.491073 c -9e-5,0.820091 -0.0131,1.714807 -0.0289,1.988259 l -0.0286,0.497184 -1.60633,0 -1.60634,0 0,-1.966641 z"
     id="path5849"
     inkscape:connector-curvature="0" /><path
     style="fill:#083e88;fill-opacity:1;stroke:none"
     d="m 109.9865,55.549891 0,-0.464039 0.48614,0 0.48613,0 0,0.464039 0,0.464039 -0.48613,0 -0.48614,0 0,-0.464039 z"
     id="path5851"
     inkscape:connector-curvature="0" /><path
     style="fill:#083e88;fill-opacity:1;stroke:none"
     d="m 111.97524,55.549891 0,-0.464039 0.48614,0 0.48613,0 0,0.464039 0,0.464039 -0.48613,0 -0.48614,0 0,-0.464039 z"
     id="path5853"
     inkscape:connector-curvature="0" /><path
     style="fill:#083e88;fill-opacity:1;stroke:none"
     d="m 114.00817,55.549891 0,-0.464039 0.46404,0 0.46404,0 0,0.464039 0,0.464039 -0.46404,0 -0.46404,0 0,-0.464039 z"
     id="path5855"
     inkscape:connector-curvature="0" /><path
     style="fill:#083e88;fill-opacity:1;stroke:none"
     d="m 115.99691,55.549891 0,-0.464039 0.48613,0 0.48614,0 0,0.464039 0,0.464039 -0.48614,0 -0.48613,0 0,-0.464039 z"
     id="path5857"
     inkscape:connector-curvature="0" /><path
     style="fill:#083e88;fill-opacity:1;stroke:none"
     d="m 117.98565,55.549891 0,-0.464039 0.48613,0 0.48614,0 0,0.464039 0,0.464039 -0.48614,0 -0.48613,0 0,-0.464039 z"
     id="path5859"
     inkscape:connector-curvature="0" /><path
     style="fill:#083e88;fill-opacity:1;stroke:none"
     d="m 120.01858,55.549891 0,-0.464039 0.48613,0 0.48614,0 0,0.464039 0,0.464039 -0.48614,0 -0.48613,0 0,-0.464039 z"
     id="path5861"
     inkscape:connector-curvature="0" /><path
     style="fill:#083e88;fill-opacity:1;stroke:none"
     d="m 145.76935,49.185964 -2.71771,-2.717975 1.88917,0 1.88917,0 0,-1.988738 0,-1.988738 1.63518,0 1.63518,0 0,1.988738 0,1.988738 1.90587,0 1.90586,0 -2.68699,2.706893 c -1.47785,1.488791 -2.69847,2.71188 -2.71251,2.717975 -0.014,0.0061 -1.24848,-1.212007 -2.74322,-2.706893 z"
     id="path5863"
     inkscape:connector-curvature="0" /><path
     style="fill:#083e88;fill-opacity:1;stroke:none"
     d="m 142.98508,55.549891 0,-0.464039 0.48614,0 0.48613,0 0,0.464039 0,0.464039 -0.48613,0 -0.48614,0 0,-0.464039 z"
     id="path5865"
     inkscape:connector-curvature="0" /><path
     style="fill:#083e88;fill-opacity:1;stroke:none"
     d="m 144.97382,55.549891 0,-0.464039 0.48614,0 0.48613,0 0,0.464039 0,0.464039 -0.48613,0 -0.48614,0 0,-0.464039 z"
     id="path5867"
     inkscape:connector-curvature="0" /><path
     style="fill:#083e88;fill-opacity:1;stroke:none"
     d="m 147.00675,55.549891 0,-0.464039 0.46404,0 0.46404,0 0,0.464039 0,0.464039 -0.46404,0 -0.46404,0 0,-0.464039 z"
     id="path5869"
     inkscape:connector-curvature="0" /><path
     style="fill:#083e88;fill-opacity:1;stroke:none"
     d="m 148.99549,55.549891 0,-0.464039 0.48614,0 0.48613,0 0,0.464039 0,0.464039 -0.48613,0 -0.48614,0 0,-0.464039 z"
     id="path5871"
     inkscape:connector-curvature="0" /><path
     style="fill:#083e88;fill-opacity:1;stroke:none"
     d="m 150.98423,55.549891 0,-0.464039 0.48613,0 0.48614,0 0,0.464039 0,0.464039 -0.48614,0 -0.48613,0 0,-0.464039 z"
     id="path5873"
     inkscape:connector-curvature="0" /><path
     style="fill:#083e88;fill-opacity:1;stroke:none"
     d="m 153.01716,55.549891 0,-0.464039 0.48614,0 0.48613,0 0,0.464039 0,0.464039 -0.48613,0 -0.48614,0 0,-0.464039 z"
     id="path5875"
     inkscape:connector-curvature="0" /><path
     style="fill:#083e88;fill-opacity:1;stroke:none"
     d="m 174.83077,55.035143 c -0.48613,-0.511546 -0.88924,-0.944249 -0.89579,-0.961561 -0.007,-0.01731 0.58624,-0.604626 1.31733,-1.30514 0.73108,-0.700515 1.31938,-1.29597 1.30734,-1.323233 -0.0121,-0.02726 -0.10185,-0.231905 -0.19957,-0.454759 -0.94893,-2.164189 -0.28639,-4.670842 1.60725,-6.080952 0.56631,-0.4217 1.1617,-0.69687 1.90158,-0.878839 0.32164,-0.07911 0.52882,-0.09813 1.08276,-0.0994 0.72201,-0.0017 0.98121,0.03538 1.56889,0.224233 1.70146,0.546764 3.0051,1.983365 3.38181,3.726715 0.48365,2.238213 -0.59755,4.52602 -2.63024,5.565546 -0.72125,0.368851 -1.43157,0.537642 -2.27627,0.540905 -0.82875,0.0032 -1.50668,-0.147347 -2.22623,-0.494378 l -0.29983,-0.144606 -0.27272,0.263132 c -1.23014,1.186907 -2.45604,2.356538 -2.46796,2.35468 -0.008,-0.0012 -0.41221,-0.420792 -0.89835,-0.932338 z m 7.11527,-3.106247 c 0.81514,-0.274919 1.551,-0.93222 1.88243,-1.681466 0.26673,-0.60298 0.33663,-1.436608 0.17383,-2.073127 -0.27447,-1.073187 -1.12533,-1.932834 -2.21078,-2.233628 -0.45631,-0.12645 -1.1792,-0.12645 -1.63551,0 -0.62237,0.172466 -1.23664,0.570722 -1.61485,1.046957 -0.96741,1.218172 -0.90587,2.962072 0.14391,4.078 0.46688,0.496299 1.00293,0.81108 1.62157,0.95224 0.43535,0.09934 1.20489,0.05757 1.6394,-0.08898 z"
     id="path5877"
     inkscape:connector-curvature="0" /><path
     style="fill:#083e88;fill-opacity:1;stroke:none"
     d="m 179.9794,48.942862 0,-0.972272 0.99436,0 0.99437,0 0,0.972272 0,0.972272 -0.99437,0 -0.99436,0 0,-0.972272 z"
     id="path5879"
     inkscape:connector-curvature="0" /><path
     style="fill:#083e88;fill-opacity:1;stroke:none"
     d="m 174.01318,49.451095 0,-0.464039 0.48614,0 0.48613,0 0,0.464039 0,0.464039 -0.48613,0 -0.48614,0 0,-0.464039 z"
     id="path5881"
     inkscape:connector-curvature="0" /><path
     style="fill:#083e88;fill-opacity:1;stroke:none"
     d="m 187.00627,49.451095 0,-0.464039 0.48614,0 0.48613,0 0,0.464039 0,0.464039 -0.48613,0 -0.48614,0 0,-0.464039 z"
     id="path5883"
     inkscape:connector-curvature="0" /><path
     style="fill:#083e88;fill-opacity:1;stroke:none"
     d="m 188.99501,49.451095 0,-0.464039 0.48613,0 0.48614,0 0,0.464039 0,0.464039 -0.48614,0 -0.48613,0 0,-0.464039 z"
     id="path5885"
     inkscape:connector-curvature="0" /><path
     style="fill:#e9f4f8;fill-opacity:1;stroke:none"
     d="m 48.772386,94.477369 c -4.304111,-0.30828 -7.987361,-2.706345 -9.941246,-6.472473 -1.004067,-1.935348 -1.452461,-4.051633 -1.322954,-6.243957 0.215523,-3.648447 2.017451,-6.911623 5.010724,-9.0741 1.691593,-1.222084 3.7242,-1.971073 5.922019,-2.182187 0.664356,-0.06382 2.131069,-0.02616 2.762136,0.07092 3.233802,0.497452 5.991196,2.131012 7.912979,4.687878 1.201655,1.598761 1.946862,3.386566 2.283017,5.477121 0.114503,0.712103 0.112483,2.74704 -0.0035,3.49134 -0.346559,2.22462 -1.214332,4.173444 -2.61728,5.877825 -0.436423,0.53019 -1.268515,1.354747 -1.785814,1.769642 -0.899201,0.721195 -2.134424,1.422196 -3.255084,1.84729 -1.518151,0.575873 -3.410738,0.862028 -4.965032,0.750702 z m 3.00534,-9.054579 2.673611,-2.676111 -2.695845,-2.682433 -2.695844,-2.682433 -0.01152,1.889301 -0.01152,1.889301 -1.94407,0 -1.944069,0 0,1.635185 0,1.635184 1.944544,0 1.944544,0 0,1.834058 c 0,1.008732 0.01498,1.834058 0.03328,1.834058 0.0183,0 1.236407,-1.204249 2.706893,-2.67611 z"
     id="path5887"
     inkscape:connector-curvature="0" /><path
     style="fill:#e9f4f8;fill-opacity:1;stroke:none"
     d="m 71.988691,82.48624 0,-10.518213 10.518214,0 10.518213,0 0,10.518213 0,10.518214 -10.518213,0 -10.518214,0 0,-10.518214 z m 16.042485,1.999967 0,-4.540772 -1.999604,-1.999966 -1.999604,-1.999966 -3.524668,0 -3.524667,0 0,6.540737 0,6.540738 5.524272,0 5.524271,0 0,-4.540771 z"
     id="path5889"
     inkscape:connector-curvature="0" /><path
     style="fill:#e9f4f8;fill-opacity:1;stroke:none"
     d="m 77.999099,82.471381 0,-5.509412 2.519068,0 2.519068,0 0,1.988737 0,1.988738 1.988738,0 1.988737,0 0,3.49134 0,3.49134 -1.981459,0 c -1.089802,0 -3.118315,0.0132 -4.507806,0.02934 l -2.526346,0.02934 0,-5.509414 z m 1.988738,4.014432 0,-0.508233 -0.508233,0 -0.508233,0 0,0.508233 0,0.508233 0.508233,0 0.508233,0 0,-0.508233 z m 2.023331,0.01105 -0.0125,-0.497185 -0.508233,0 -0.508233,0 -0.0125,0.497185 -0.0125,0.497184 0.533225,0 0.533224,0 -0.0125,-0.497184 z m 1.998339,-0.01105 0,-0.508233 -0.508233,0 -0.508233,0 0,0.508233 0,0.508233 0.508233,0 0.508233,0 0,-0.508233 z m 1.988737,0 0,-0.508233 -0.508233,0 -0.508233,0 0,0.508233 0,0.508233 0.508233,0 0.508233,0 0,-0.508233 z m -6.010407,-1.988738 0,-0.508233 -0.508233,0 -0.508233,0 0,0.508233 0,0.508233 0.508233,0 0.508233,0 0,-0.508233 z m 2.023331,-0.01105 0.0125,-0.497185 -0.531777,0 -0.531777,0 0,0.47877 c 0,0.263324 0.01387,0.492643 0.03083,0.509599 0.01696,0.01696 0.250632,0.02524 0.519282,0.01841 l 0.488453,-0.01241 0.0125,-0.497184 z m 1.998339,0.01105 0,-0.508233 -0.508233,0 -0.508233,0 0,0.508233 0,0.508233 0.508233,0 0.508233,0 0,-0.508233 z m 1.988737,0 0,-0.508233 -0.508233,0 -0.508233,0 0,0.508233 0,0.508233 0.508233,0 0.508233,0 0,-0.508233 z m -6.010407,-2.010835 0,-0.53033 -0.508233,0 -0.508233,0 0,0.500867 c 0,0.275478 0.01326,0.514126 0.02946,0.53033 0.0162,0.0162 0.24491,0.02946 0.508233,0.02946 l 0.478771,0 0,-0.53033 z m 2.010835,0 0,-0.508233 -0.508233,0 -0.508233,0 -0.01268,0.461052 c -0.007,0.253577 -0.0024,0.487909 0.01022,0.520736 0.01776,0.04629 0.134655,0.05688 0.520916,0.04718 l 0.498014,-0.0125 0,-0.508233 z m 2.001189,-0.01105 0.01245,-0.519282 -0.509636,0 -0.509635,0 0,0.500867 c 0,0.275478 0.01389,0.514759 0.03087,0.531737 0.01698,0.01698 0.240711,0.02526 0.497185,0.01841 l 0.466315,-0.01246 0.01245,-0.519281 z m 1.988738,0 0.01245,-0.519282 -0.509635,0 -0.509636,0 0,0.500867 c 0,0.275478 0.01389,0.514759 0.03087,0.531737 0.01698,0.01698 0.240711,0.02526 0.497185,0.01841 l 0.466315,-0.01246 0.01245,-0.519281 z m -6.000762,-1.999787 0,-0.508233 -0.508233,0 -0.508233,0 0,0.508233 0,0.508233 0.508233,0 0.508233,0 0,-0.508233 z m 2.023331,-0.01105 0.0125,-0.497185 -0.531777,0 -0.531777,0 0,0.509636 0,0.509635 0.519281,-0.01245 0.519282,-0.01245 0.0125,-0.497184 z m -2.023331,-1.977689 0,-0.508233 -0.508233,0 -0.508233,0 0,0.508233 0,0.508233 0.508233,0 0.508233,0 0,-0.508233 z m 2.023331,-0.01105 0.0125,-0.497184 -0.531777,0 -0.531777,0 0,0.47877 c 0,0.263323 0.01387,0.492643 0.03083,0.509599 0.01696,0.01696 0.250632,0.02524 0.519282,0.01841 l 0.488453,-0.01242 0.0125,-0.497184 z"
     id="path5891"
     inkscape:connector-curvature="0" /><path
     style="fill:#e9f4f8;fill-opacity:1;stroke:none"
     d="m 104.98438,82.48624 0,-10.518213 10.51821,0 10.51822,0 0,10.518213 0,10.518214 -10.51822,0 -10.51821,0 0,-10.518214 z m 6.01041,6.076699 0,-0.508233 -0.53033,0 -0.53033,0 0,0.508233 0,0.508233 0.53033,0 0.53033,0 0,-0.508233 z m 1.98873,0 0,-0.508233 -0.50823,0 -0.50823,0 0,0.508233 0,0.508233 0.50823,0 0.50823,0 0,-0.508233 z m 1.98874,0 0,-0.508233 -0.50823,0 -0.50823,0 0,0.508233 0,0.508233 0.50823,0 0.50823,0 0,-0.508233 z m 2.03293,0 0,-0.508233 -0.53033,0 -0.53033,0 0,0.47877 c 0,0.263324 0.0133,0.492029 0.0295,0.508233 0.0162,0.0162 0.25485,0.02946 0.53033,0.02946 l 0.50086,0 0,-0.508233 z m 1.98874,0 0,-0.508233 -0.50823,0 -0.50823,0 0,0.508233 0,0.508233 0.50823,0 0.50823,0 0,-0.508233 z m 1.98874,0 0,-0.508233 -0.50823,0 -0.50824,0 0,0.508233 0,0.508233 0.50824,0 0.50823,0 0,-0.508233 z m -3.78558,-4.404405 c 0.016,-0.441419 0.0291,-1.336351 0.0291,-1.988738 l 0,-1.186158 1.85615,0 c 1.02089,0 1.85616,-0.01498 1.85616,-0.03328 0,-0.06012 -5.424,-5.458187 -5.46738,-5.441239 -0.0568,0.02218 -5.40439,5.41201 -5.40439,5.447049 0,0.01511 0.85516,0.02747 1.90035,0.02747 l 1.90035,0 0,1.988738 0,1.988738 1.65031,0 1.6503,0 0.0291,-0.80258 z"
     id="path5893"
     inkscape:connector-curvature="0" /><path
     style="fill:#e9f4f8;fill-opacity:1;stroke:none"
     d="m 137.99882,82.48624 0,-10.518213 10.51822,0 10.51821,0 0,10.518213 0,10.518214 -10.51821,0 -10.51822,0 0,-10.518214 z m 5.96622,6.076699 0,-0.508233 -0.50824,0 -0.50823,0 0,0.508233 0,0.508233 0.50823,0 0.50824,0 0,-0.508233 z m 2.03293,0 0,-0.508233 -0.53033,0 -0.53033,0 0,0.47877 c 0,0.263324 0.0133,0.492029 0.0295,0.508233 0.0162,0.0162 0.25485,0.02946 0.53033,0.02946 l 0.50087,0 0,-0.508233 z m 1.98874,0 0,-0.508233 -0.50824,0 -0.50823,0 0,0.508233 0,0.508233 0.50823,0 0.50824,0 0,-0.508233 z m 1.98873,0 0,-0.508233 -0.50823,0 -0.50823,0 0,0.508233 0,0.508233 0.50823,0 0.50823,0 0,-0.508233 z m 2.03294,0 0,-0.508233 -0.53033,0 -0.53033,0 0,0.508233 0,0.508233 0.53033,0 0.53033,0 0,-0.508233 z m 1.98873,0 0,-0.508233 -0.50823,0 -0.50823,0 0,0.508233 0,0.508233 0.50823,0 0.50823,0 0,-0.508233 z m -2.74004,-6.363961 2.71795,-2.740039 -1.9335,-0.01151 -1.93349,-0.01151 0,-1.988273 0,-1.988273 -1.65729,0 -1.65728,0 0,2.010835 0,2.010834 -1.88916,0 -1.88917,0 2.7398,2.740073 c 1.5069,1.507039 2.7498,2.735085 2.76201,2.72899 0.0122,-0.0061 1.24527,-1.2441 2.74013,-2.751121 z"
     id="path5903"
     inkscape:connector-curvature="0" /><path
     style="fill:#e9f4f8;fill-opacity:1;stroke:none"
     d="m 171.0003,82.48624 0,-10.518213 10.51821,0 10.51821,0 0,10.518213 0,10.518214 -10.51821,0 -10.51821,0 0,-10.518214 z m 5.76171,5.559914 c 0.56215,-0.539453 1.17515,-1.12957 1.36221,-1.31137 l 0.34012,-0.330545 0.30483,0.140505 c 0.82597,0.380714 1.50364,0.516098 2.41092,0.48165 0.74626,-0.02834 1.29498,-0.156925 1.90829,-0.447205 0.5931,-0.28071 1.01265,-0.573901 1.46582,-1.024349 1.58423,-1.574716 1.95076,-3.949245 0.91686,-5.939953 -1.08215,-2.083644 -3.48108,-3.147541 -5.77601,-2.561594 -1.36932,0.349617 -2.60972,1.351975 -3.25112,2.627187 -0.3678,0.731244 -0.53808,1.458329 -0.53808,2.297527 0,0.791986 0.1467,1.444523 0.49427,2.198593 l 0.14128,0.306514 -0.5056,0.495013 c -0.27808,0.272257 -0.8826,0.855399 -1.34337,1.29587 l -0.83777,0.800858 0.83777,0.867532 c 0.46077,0.477143 0.87754,0.915129 0.92616,0.973304 0.0486,0.05818 0.0958,0.107013 0.10486,0.10853 0.009,0.0015 0.47642,-0.438614 1.03856,-0.978067 z m -1.74004,-5.582011 0,-0.508233 -0.50824,0 -0.50823,0 0,0.508233 0,0.508233 0.50823,0 0.50824,0 0,-0.508233 z m 12.99308,-0.0014 0,-0.509635 -0.51928,0.01245 -0.51928,0.01245 -0.0125,0.497185 -0.0125,0.497184 0.53178,0 0.53177,0 0,-0.509636 z m 1.98874,0.0014 0,-0.508233 -0.50823,0 -0.50823,0 0,0.508233 0,0.508233 0.50823,0 0.50823,0 0,-0.508233 z"
     id="path5905"
     inkscape:connector-curvature="0" /><path
     style="fill:#e9f4f8;fill-opacity:1;stroke:none"
     d="m 180.21478,84.962322 c -0.41906,-0.111501 -0.61064,-0.196839 -0.95701,-0.426294 -0.55791,-0.369582 -0.9892,-0.933894 -1.21228,-1.586173 -0.15797,-0.461915 -0.19681,-1.210164 -0.0872,-1.678954 0.26111,-1.116338 1.22612,-2.079134 2.32623,-2.320887 0.15721,-0.03455 0.46147,-0.04701 0.83969,-0.03438 0.53698,0.01792 0.62707,0.03315 0.95164,0.16088 1.05818,0.416429 1.79356,1.337552 1.96182,2.457345 0.23331,1.552727 -0.84858,3.127396 -2.37019,3.449772 -0.42255,0.08952 -1.07201,0.08 -1.45274,-0.0213 z m 1.78987,-3.007226 0,-1.017281 -1.02752,0.01186 -1.02751,0.01186 -0.0119,1.005418 -0.0119,1.005417 1.03939,0 1.0394,0 0,-1.01728 z"
     id="path5907"
     inkscape:connector-curvature="0" /></svg>