<?xml version="1.0" encoding="UTF-8" standalone="no"?>
<!-- Generator: Adobe Illustrator 18.1.1, SVG Export Plug-In . SVG Version: 6.00 Build 0)  -->

<svg
   xmlns:dc="http://purl.org/dc/elements/1.1/"
   xmlns:cc="http://creativecommons.org/ns#"
   xmlns:rdf="http://www.w3.org/1999/02/22-rdf-syntax-ns#"
   xmlns:svg="http://www.w3.org/2000/svg"
   xmlns="http://www.w3.org/2000/svg"
   xmlns:sodipodi="http://sodipodi.sourceforge.net/DTD/sodipodi-0.dtd"
   xmlns:inkscape="http://www.inkscape.org/namespaces/inkscape"
   version="1.1"
   id="Layer_1"
   x="0px"
   y="0px"
   width="48px"
   height="66px"
   viewBox="0 0 48 66"
   enable-background="new 0 0 48 66"
   xml:space="preserve"
   inkscape:version="0.91 r13725"
   sodipodi:docname="lock.svg"><metadata
   id="metadata5551"><rdf:RDF><cc:Work
       rdf:about=""><dc:format>image/svg+xml</dc:format><dc:type
         rdf:resource="http://purl.org/dc/dcmitype/StillImage" /></cc:Work></rdf:RDF></metadata><defs
   id="defs5549" /><sodipodi:namedview
   pagecolor="#ffffff"
   bordercolor="#666666"
   borderopacity="1"
   objecttolerance="10"
   gridtolerance="10"
   guidetolerance="10"
   inkscape:pageopacity="0"
   inkscape:pageshadow="2"
   inkscape:window-width="1366"
   inkscape:window-height="706"
   id="namedview5547"
   showgrid="false"
   inkscape:zoom="8.0454545"
   inkscape:cx="24"
   inkscape:cy="33"
   inkscape:window-x="-8"
   inkscape:window-y="-8"
   inkscape:window-maximized="1"
   inkscape:current-layer="Layer_1" />
<g
   id="g5537">
	<path
   fill="#22A2A4"
   d="M39.903,66h-32c-4.4,0-8-3.6-8-8V31.724c0-4.4,3.6-8,8-8h32c4.4,0,8,3.6,8,8V58   C47.903,62.4,44.303,66,39.903,66z"
   id="path5539" />
	<polygon
   fill="#FFFFFF"
   points="21.811,44.767 25.811,44.767 27.874,54.927 19.874,54.927  "
   id="polygon5541" />
	<ellipse
   fill="#FFFFFF"
   cx="23.874"
   cy="40.43"
   rx="5.469"
   ry="5.503"
   id="ellipse5543" />
	<path
   fill="none"
   stroke="#22A2A4"
   stroke-width="5.0157"
   stroke-miterlimit="10"
   d="M10.782,24.445V13.66   c0,0,0.13-11.112,13.121-11.112s12.926,10.948,12.926,10.948v10.948"
   id="path5545" />
</g>
<path
   style="fill:#083e88;fill-opacity:1;stroke:none"
   d="M 6.8723164,66.006309 C 4.5916188,65.640653 2.5557104,64.420842 1.4058267,62.731073 0.75524966,61.775042 0.34079399,60.919801 0.07638692,59.987736 c -0.21341724,-0.75232 -0.22666941,-1.634718 -0.22666941,-15.092821 0,-15.97349 -0.0573003,-14.888221 0.88921891,-16.841808 0.63251988,-1.305501 2.20426518,-2.863102 3.54526108,-3.513355 1.1195134,-0.542857 2.2436134,-0.832527 3.2406613,-0.83509 l 0.7146892,-0.0018 0,-5.455196 c 0,-4.440332 0.036348,-5.646807 0.1953814,-6.485163 C 9.5489491,5.8898311 13.343293,1.8924682 19.107751,0.51858685 23.754464,-0.58889491 29.397306,0.06087453 32.795774,2.0947534 c 3.304898,1.9778803 5.406798,4.9358231 6.301528,8.8679586 0.231938,1.019315 0.25919,1.634604 0.30692,6.929378 l 0.05238,5.810735 0.767179,0.0018 c 1.051656,0.0025 2.20634,0.294805 3.315201,0.839182 1.320331,0.648194 2.89872,2.220335 3.523211,3.509264 0.946519,1.953586 0.889218,0.868317 0.889218,16.841808 0,15.883742 0.04938,14.894942 -0.830899,16.638761 -1.007166,1.995185 -2.666192,3.442719 -4.759736,4.152966 l -0.996935,0.338214 -17.090396,0.01563 c -9.399717,0.0086 -17.2302257,-0.0068 -17.4011296,-0.03418 z M 27.877966,54.865003 c 0,-0.08792 -0.420615,-2.221542 -0.9347,-4.741383 -0.514086,-2.51984 -0.919594,-4.594419 -0.90113,-4.610177 0.01846,-0.01576 0.280701,-0.153331 0.58275,-0.30572 0.302049,-0.152388 0.821656,-0.556811 1.154684,-0.898719 2.329364,-2.391468 2.029637,-6.301091 -0.636656,-8.304504 -2.252255,-1.692312 -5.423347,-1.394463 -7.314513,0.687025 -2.290032,2.520494 -1.766416,6.534469 1.09354,8.382948 l 0.696445,0.450134 -0.890412,4.656906 c -0.489727,2.561298 -0.867851,4.698854 -0.840276,4.750125 0.02758,0.05127 1.836667,0.09322 4.020203,0.09322 3.152641,0 3.970065,-0.03291 3.970065,-0.159856 z m 6.337146,-36.662178 c -0.002,-5.93722 -0.02966,-6.250073 -0.692198,-7.82419 -1.58003,-3.7539857 -5.364639,-5.5423428 -10.959111,-5.1785559 -4.25068,0.2764053 -7.171548,2.1991364 -8.532968,5.6170309 -0.635064,1.594348 -0.695242,2.269551 -0.695242,7.800604 l 0,5.085111 10.440678,0 10.440678,0 -0.0018,-5.5 2e-6,0 z"
   id="path5555"
   inkscape:connector-curvature="0" /></svg>