<?xml version="1.0" encoding="UTF-8" standalone="no"?>
<!-- Generator: Adobe Illustrator 18.1.1, SVG Export Plug-In . SVG Version: 6.00 Build 0)  -->

<svg
   xmlns:dc="http://purl.org/dc/elements/1.1/"
   xmlns:cc="http://creativecommons.org/ns#"
   xmlns:rdf="http://www.w3.org/1999/02/22-rdf-syntax-ns#"
   xmlns:svg="http://www.w3.org/2000/svg"
   xmlns="http://www.w3.org/2000/svg"
   xmlns:sodipodi="http://sodipodi.sourceforge.net/DTD/sodipodi-0.dtd"
   xmlns:inkscape="http://www.inkscape.org/namespaces/inkscape"
   version="1.1"
   id="Layer_1"
   x="0px"
   y="0px"
   width="20px"
   height="20px"
   viewBox="0 0 20 20"
   enable-background="new 0 0 20 20"
   xml:space="preserve"
   inkscape:version="0.91 r13725"
   sodipodi:docname="orgin_resize.svg"><metadata
   id="metadata5653"><rdf:RDF><cc:Work
       rdf:about=""><dc:format>image/svg+xml</dc:format><dc:type
         rdf:resource="http://purl.org/dc/dcmitype/StillImage" /></cc:Work></rdf:RDF></metadata><defs
   id="defs5651" /><sodipodi:namedview
   pagecolor="#ffffff"
   bordercolor="#666666"
   borderopacity="1"
   objecttolerance="10"
   gridtolerance="10"
   guidetolerance="10"
   inkscape:pageopacity="0"
   inkscape:pageshadow="2"
   inkscape:window-width="1366"
   inkscape:window-height="706"
   id="namedview5649"
   showgrid="false"
   inkscape:zoom="26.55"
   inkscape:cx="10"
   inkscape:cy="10"
   inkscape:window-x="-8"
   inkscape:window-y="-8"
   inkscape:window-maximized="1"
   inkscape:current-layer="Layer_1" />
<rect
   x="0"
   y="0"
   fill="#006468"
   width="20"
   height="20"
   id="rect5595" />
<rect
   x="7.987"
   y="18"
   fill="#22A2A4"
   width="0.992"
   height="0.992"
   id="rect5597" />
<rect
   x="8.979"
   y="17.008"
   fill="#22A2A4"
   width="0.992"
   height="0.992"
   id="rect5599" />
<rect
   x="10"
   y="16.016"
   fill="#22A2A4"
   width="0.992"
   height="0.992"
   id="rect5601" />
<rect
   x="10.992"
   y="15.024"
   fill="#22A2A4"
   width="0.992"
   height="0.992"
   id="rect5603" />
<rect
   x="11.984"
   y="14.032"
   fill="#22A2A4"
   width="0.992"
   height="0.992"
   id="rect5605" />
<rect
   x="12.976"
   y="12.985"
   fill="#22A2A4"
   width="0.992"
   height="0.992"
   id="rect5607" />
<rect
   x="13.968"
   y="11.993"
   fill="#22A2A4"
   width="0.992"
   height="0.992"
   id="rect5609" />
<rect
   x="15.038"
   y="11.001"
   fill="#22A2A4"
   width="0.992"
   height="0.992"
   id="rect5611" />
<rect
   x="10.992"
   y="17.991"
   fill="#22A2A4"
   width="0.992"
   height="0.992"
   id="rect5613" />
<rect
   x="11.984"
   y="16.999"
   fill="#22A2A4"
   width="0.992"
   height="0.992"
   id="rect5615" />
<rect
   x="13.005"
   y="16.007"
   fill="#22A2A4"
   width="0.992"
   height="0.992"
   id="rect5617" />
<rect
   x="13.997"
   y="15.015"
   fill="#22A2A4"
   width="0.992"
   height="0.992"
   id="rect5619" />
<rect
   x="14.989"
   y="14.023"
   fill="#22A2A4"
   width="0.992"
   height="0.992"
   id="rect5621" />
<rect
   x="14.032"
   y="18"
   fill="#22A2A4"
   width="0.992"
   height="0.992"
   id="rect5623" />
<rect
   x="15.024"
   y="17.008"
   fill="#22A2A4"
   width="0.992"
   height="0.992"
   id="rect5625" />
<rect
   x="16.973"
   y="18"
   fill="#22A2A4"
   width="0.992"
   height="0.992"
   id="rect5627" />
<rect
   x="17.965"
   y="17.008"
   fill="#22A2A4"
   width="0.992"
   height="0.992"
   id="rect5629" />
<rect
   x="16.045"
   y="16.016"
   fill="#22A2A4"
   width="0.992"
   height="0.992"
   id="rect5631" />
<rect
   x="17.037"
   y="15.024"
   fill="#22A2A4"
   width="0.992"
   height="0.992"
   id="rect5633" />
<rect
   x="18.029"
   y="14.032"
   fill="#22A2A4"
   width="0.992"
   height="0.992"
   id="rect5635" />
<rect
   x="15.981"
   y="12.976"
   fill="#22A2A4"
   width="0.992"
   height="0.992"
   id="rect5637" />
<rect
   x="16.973"
   y="11.984"
   fill="#22A2A4"
   width="0.992"
   height="0.992"
   id="rect5639" />
<rect
   x="18.043"
   y="10.992"
   fill="#22A2A4"
   width="0.992"
   height="0.992"
   id="rect5641" />
<rect
   x="16.03"
   y="10"
   fill="#22A2A4"
   width="0.992"
   height="0.992"
   id="rect5643" />
<rect
   x="17.022"
   y="9.008"
   fill="#22A2A4"
   width="0.992"
   height="0.992"
   id="rect5645" />
<rect
   x="18.014"
   y="8.016"
   fill="#22A2A4"
   width="0.992"
   height="0.992"
   id="rect5647" />
<path
   style="fill:#093f89;fill-opacity:1;stroke:none"
   d="m -0.01129944,10.007533 0,-10.01883244 10.01883244,0 10.018832,0 0,10.01883244 0,10.018832 -10.018832,0 -10.01883244,0 0,-10.018832 z m 9.00188324,8.493409 0,-0.508475 0.4896422,0 0.4896422,0 0,-0.489642 0,-0.489642 -0.5084746,0 -0.5084746,0 0,0.489642 0,0.489642 -0.4896422,0 -0.4896421,0 0,0.508475 0,0.508474 0.5084745,0 0.5084746,0 0,-0.508474 z m 3.0048602,-0.0094 0.01051,-0.499058 0.488549,0 0.488549,0 0,-0.489642 0,-0.489642 0.508474,0 0.508475,0 0,-0.488549 0,-0.488549 0.499058,-0.01051 0.499059,-0.01051 0.01051,-0.499058 0.01051,-0.499059 0.488549,0 0.488549,0 0,-0.508474 0,-0.508475 -0.508475,0 -0.508475,0 0,0.508475 0,0.508474 -0.489642,0 -0.489642,0 0,0.489642 0,0.489643 -0.508475,0 -0.508474,0 0,0.488548 0,0.488549 -0.499059,0.01051 -0.499058,0.01051 -0.01051,0.499059 -0.01051,0.499058 -0.488549,0 -0.488549,0 0,0.509568 0,0.509568 0.499059,-0.01051 0.499058,-0.01051 0.01051,-0.499059 z m 3.029828,0.01883 0.01051,-0.499059 0.499058,-0.01051 0.499058,-0.01051 0,-0.48855 0,-0.488548 0.508475,0 0.508474,0 0,-0.489643 0,-0.489642 0.489643,0 0.489642,0 0,-0.508474 0,-0.508475 0.508474,0 0.508475,0 0,-0.489642 0,-0.489642 -0.508475,0 -0.508474,0 0,0.489642 0,0.489642 -0.508475,0 -0.508474,0 0,0.489642 0,0.489643 -0.489643,0 -0.489642,0 0,0.508474 0,0.508475 -0.508474,0 -0.508475,0 0,0.489642 0,0.489642 -0.489642,0 -0.489642,0 0,0.508475 0,0.508474 0.488549,0 0.488549,0 0.01051,-0.499058 z m 2.958872,-0.01883 0.01051,-0.499058 0.48855,0 0.488548,0 0,-0.489642 0,-0.489642 -0.508474,0 -0.508475,0 0,0.489642 0,0.489642 -0.489642,0 -0.489642,0 0,0.509568 0,0.509568 0.499058,-0.01051 0.499059,-0.01051 0.01051,-0.499059 z m -6.997327,-1.967985 0,-0.489642 0.508475,0 0.508474,0 0,-0.508474 0,-0.508475 0.489643,0 0.489642,0 0,-0.489642 0,-0.489642 -0.508475,0 -0.508474,0 0,0.489642 0,0.489642 -0.489642,0 -0.489643,0 0,0.489642 0,0.489643 -0.489642,0 -0.489642,0 0,0.508474 0,0.508475 0.489642,0 0.489642,0 0,-0.489643 z m 2.975518,-3.032015 0,-0.508474 0.509568,0 0.509568,0 -0.01051,-0.499059 -0.01051,-0.499058 -0.499058,-0.01051 -0.499059,-0.01051 0,0.509568 0,0.509568 -0.489642,0 -0.489642,0 0,0.508474 0,0.508475 0.489642,0 0.489642,0 0,-0.508475 z m 3.013183,-0.01883 0,-0.489642 0.509568,0 0.509567,0 -0.01051,-0.499059 -0.01051,-0.499058 -0.499059,-0.01051 -0.499058,-0.01051 0,0.509568 0,0.509568 -0.508475,0 -0.508474,0 0,0.489642 0,0.489642 0.508474,0 0.508475,0 0,-0.489642 z m -0.94162,-1.977401 0,-0.508475 0.508475,0 0.508474,0 0,-0.489642 0,-0.489642 0.489643,0 0.489642,0 0,-0.4896422 0,-0.4896422 0.489642,0 0.489642,0 0,-0.5084746 0,-0.5084746 -0.508474,0 -0.508475,0 0,0.4896422 0,0.4896422 -0.489642,0 -0.489642,0 0,0.5084746 0,0.5084746 -0.489643,0 -0.489642,0 0,0.489642 0,0.489642 -0.508474,0 -0.508475,0 0,0.508475 0,0.508474 0.508475,0 0.508474,0 0,-0.508474 z m 3.013183,0 0,-0.508475 -0.508475,0 -0.508474,0 0,0.508475 0,0.508474 0.508474,0 0.508475,0 0,-0.508474 z"
   id="path5655"
   inkscape:connector-curvature="0" /><path
   style="fill:#b8def1;fill-opacity:1;stroke:none"
   d="m 18.030132,8.5009416 0,-0.4896422 0.489642,0 0.489642,0 0,0.4896422 0,0.4896422 -0.489642,0 -0.489642,0 0,-0.4896422 z"
   id="path5657"
   inkscape:connector-curvature="0" /><path
   style="fill:#b8def1;fill-opacity:1;stroke:none"
   d="m 17.050847,9.5178908 0,-0.4896422 0.47081,0 0.47081,0 0,0.4896422 0,0.4896422 -0.47081,0 -0.47081,0 0,-0.4896422 z"
   id="path5659"
   inkscape:connector-curvature="0" /><path
   style="fill:#b8def1;fill-opacity:1;stroke:none"
   d="m 16.033898,10.497175 0,-0.489642 0.489642,0 0.489643,0 0,0.489642 0,0.489642 -0.489643,0 -0.489642,0 0,-0.489642 z"
   id="path5661"
   inkscape:connector-curvature="0" /><path
   style="fill:#b8def1;fill-opacity:1;stroke:none"
   d="m 15.054614,11.495292 0,-0.47081 0.489642,0 0.489642,0 0,0.47081 0,0.47081 -0.489642,0 -0.489642,0 0,-0.47081 z"
   id="path5663"
   inkscape:connector-curvature="0" /><path
   style="fill:#b8def1;fill-opacity:1;stroke:none"
   d="m 13.962335,12.493409 0,-0.489643 0.489642,0 0.489643,0 0,0.489643 0,0.489642 -0.489643,0 -0.489642,0 0,-0.489642 z"
   id="path5665"
   inkscape:connector-curvature="0" /><path
   style="fill:#b8def1;fill-opacity:1;stroke:none"
   d="m 12.983051,13.472693 0,-0.489642 0.489642,0 0.489642,0 0,0.489642 0,0.489642 -0.489642,0 -0.489642,0 0,-0.489642 z"
   id="path5667"
   inkscape:connector-curvature="0" /><path
   style="fill:#b8def1;fill-opacity:1;stroke:none"
   d="m 12.003766,14.527307 0,-0.489642 0.489643,0 0.489642,0 0,0.489642 0,0.489642 -0.489642,0 -0.489643,0 0,-0.489642 z"
   id="path5669"
   inkscape:connector-curvature="0" /><path
   style="fill:#b8def1;fill-opacity:1;stroke:none"
   d="m 10.995108,15.516008 0.01054,-0.480226 0.480226,-0.01054 0.480226,-0.01054 0,0.490767 0,0.490768 -0.490768,0 -0.490767,0 0.01054,-0.480226 z"
   id="path5671"
   inkscape:connector-curvature="0" /><path
   style="fill:#b8def1;fill-opacity:1;stroke:none"
   d="m 10.007533,16.52354 0,-0.489642 0.489642,0 0.489642,0 0,0.489642 0,0.489643 -0.489642,0 -0.489642,0 0,-0.489643 z"
   id="path5673"
   inkscape:connector-curvature="0" /><path
   style="fill:#b8def1;fill-opacity:1;stroke:none"
   d="m 8.9905838,17.502825 0,-0.489642 0.4896422,0 0.4896422,0 0,0.489642 0,0.489642 -0.4896422,0 -0.4896422,0 0,-0.489642 z"
   id="path5675"
   inkscape:connector-curvature="0" /><path
   style="fill:#b8def1;fill-opacity:1;stroke:none"
   d="m 8.0112994,18.482109 0,-0.489642 0.4708098,0 0.4708098,0 0,0.489642 0,0.489642 -0.4708098,0 -0.4708098,0 0,-0.489642 z"
   id="path5677"
   inkscape:connector-curvature="0" /><path
   style="fill:#b8def1;fill-opacity:1;stroke:none"
   d="m 10.986817,18.482109 0,-0.489642 0.489643,0 0.489642,0 0,0.489642 0,0.489642 -0.489642,0 -0.489643,0 0,-0.489642 z"
   id="path5679"
   inkscape:connector-curvature="0" /><path
   style="fill:#b8def1;fill-opacity:1;stroke:none"
   d="m 12.003766,17.50395 0,-0.490767 0.490768,0 0.490767,0 -0.01054,0.480226 -0.01054,0.480226 -0.480226,0.01054 -0.480226,0.01054 0,-0.490768 z"
   id="path5681"
   inkscape:connector-curvature="0" /><path
   style="fill:#b8def1;fill-opacity:1;stroke:none"
   d="m 13.020716,16.504708 0,-0.47081 0.489642,0 0.489642,0 0,0.47081 0,0.47081 -0.489642,0 -0.489642,0 0,-0.47081 z"
   id="path5683"
   inkscape:connector-curvature="0" /><path
   style="fill:#b8def1;fill-opacity:1;stroke:none"
   d="m 14,15.506591 0,-0.489642 0.489642,0 0.489642,0 0,0.489642 0,0.489643 -0.489642,0 -0.489642,0 0,-0.489643 z"
   id="path5685"
   inkscape:connector-curvature="0" /><path
   style="fill:#b8def1;fill-opacity:1;stroke:none"
   d="m 15.016949,14.527307 0,-0.489642 0.47081,0 0.47081,0 0,0.489642 0,0.489642 -0.47081,0 -0.47081,0 0,-0.489642 z"
   id="path5687"
   inkscape:connector-curvature="0" /><path
   style="fill:#b8def1;fill-opacity:1;stroke:none"
   d="m 15.996234,13.472693 0,-0.489642 0.489642,0 0.489642,0 0,0.489642 0,0.489642 -0.489642,0 -0.489642,0 0,-0.489642 z"
   id="path5689"
   inkscape:connector-curvature="0" /><path
   style="fill:#b8def1;fill-opacity:1;stroke:none"
   d="m 16.975518,12.493409 0,-0.489643 0.489642,0 0.489642,0 0,0.489643 0,0.489642 -0.489642,0 -0.489642,0 0,-0.489642 z"
   id="path5691"
   inkscape:connector-curvature="0" /><path
   style="fill:#b8def1;fill-opacity:1;stroke:none"
   d="m 18.067797,11.47646 0,-0.489643 0.470809,0 0.47081,0 0,0.489643 0,0.489642 -0.47081,0 -0.470809,0 0,-0.489642 z"
   id="path5693"
   inkscape:connector-curvature="0" /><path
   style="fill:#b8def1;fill-opacity:1;stroke:none"
   d="m 18.030132,14.527307 0,-0.489642 0.489642,0 0.489642,0 0,0.489642 0,0.489642 -0.489642,0 -0.489642,0 0,-0.489642 z"
   id="path5695"
   inkscape:connector-curvature="0" /><path
   style="fill:#b8def1;fill-opacity:1;stroke:none"
   d="m 17.050847,15.505466 0,-0.490767 0.480226,0.01054 0.480226,0.01054 0.01054,0.480226 0.01054,0.480226 -0.490767,0 -0.490768,0 0,-0.490768 z"
   id="path5697"
   inkscape:connector-curvature="0" /><path
   style="fill:#b8def1;fill-opacity:1;stroke:none"
   d="m 16.071563,16.52354 0,-0.489642 0.47081,0 0.47081,0 0,0.489642 0,0.489643 -0.47081,0 -0.47081,0 0,-0.489643 z"
   id="path5699"
   inkscape:connector-curvature="0" /><path
   style="fill:#b8def1;fill-opacity:1;stroke:none"
   d="m 15.016949,17.502825 0,-0.489642 0.489642,0 0.489643,0 0,0.489642 0,0.489642 -0.489643,0 -0.489642,0 0,-0.489642 z"
   id="path5701"
   inkscape:connector-curvature="0" /><path
   style="fill:#b8def1;fill-opacity:1;stroke:none"
   d="m 14.037665,18.482109 0,-0.489642 0.489642,0 0.489642,0 0,0.489642 0,0.489642 -0.489642,0 -0.489642,0 0,-0.489642 z"
   id="path5703"
   inkscape:connector-curvature="0" /><path
   style="fill:#b8def1;fill-opacity:1;stroke:none"
   d="m 16.975518,18.482109 0,-0.489642 0.489642,0 0.489642,0 0,0.489642 0,0.489642 -0.489642,0 -0.489642,0 0,-0.489642 z"
   id="path5705"
   inkscape:connector-curvature="0" /><path
   style="fill:#b8def1;fill-opacity:1;stroke:none"
   d="m 17.992467,17.502825 0,-0.489642 0.47081,0 0.47081,0 0,0.489642 0,0.489642 -0.47081,0 -0.47081,0 0,-0.489642 z"
   id="path5707"
   inkscape:connector-curvature="0" /></svg>