<?xml version="1.0" encoding="UTF-8" standalone="no"?>
<!-- Generator: Adobe Illustrator 18.1.1, SVG Export Plug-In . SVG Version: 6.00 Build 0)  -->

<svg
   xmlns:dc="http://purl.org/dc/elements/1.1/"
   xmlns:cc="http://creativecommons.org/ns#"
   xmlns:rdf="http://www.w3.org/1999/02/22-rdf-syntax-ns#"
   xmlns:svg="http://www.w3.org/2000/svg"
   xmlns="http://www.w3.org/2000/svg"
   xmlns:sodipodi="http://sodipodi.sourceforge.net/DTD/sodipodi-0.dtd"
   xmlns:inkscape="http://www.inkscape.org/namespaces/inkscape"
   version="1.1"
   id="Layer_1"
   x="0px"
   y="0px"
   width="17px"
   height="33px"
   viewBox="0 0 17 33"
   enable-background="new 0 0 17 33"
   xml:space="preserve"
   inkscape:version="0.91 r13725"
   sodipodi:docname="tab-unsel-menu.svg"><metadata
     id="metadata15"><rdf:RDF><cc:Work
         rdf:about=""><dc:format>image/svg+xml</dc:format><dc:type
           rdf:resource="http://purl.org/dc/dcmitype/StillImage" /></cc:Work></rdf:RDF></metadata><defs
     id="defs13" /><sodipodi:namedview
     pagecolor="#ffffff"
     bordercolor="#666666"
     borderopacity="1"
     objecttolerance="10"
     gridtolerance="10"
     guidetolerance="10"
     inkscape:pageopacity="0"
     inkscape:pageshadow="2"
     inkscape:window-width="1366"
     inkscape:window-height="706"
     id="namedview11"
     showgrid="false"
     inkscape:zoom="28.606061"
     inkscape:cx="7.8114936"
     inkscape:cy="20.15176"
     inkscape:window-x="-8"
     inkscape:window-y="-8"
     inkscape:window-maximized="1"
     inkscape:current-layer="Layer_1" /><rect
     x="0"
     y="8"
     width="17"
     height="17"
     id="rect3"
     style="fill:#4db7bb" /><polygon
     fill="#007074"
     points="3.558,14.029 13.442,14.029 8.5,18.971 "
     id="polygon9" /><path
     style="fill:#e9f4f8;fill-opacity:1;stroke:none"
     d="m -0.01202324,16.508304 0,-8.5121826 8.51218204,0 8.5121822,0 0,8.5121826 0,8.512182 -8.5121822,0 -8.51218204,0 0,-8.512182 z m 10.99417324,-0.01748 2.481807,-2.481992 -4.9637982,0 -4.9637984,0 2.481807,2.481992 c 1.3649939,1.365095 2.4818901,2.481991 2.4819914,2.481991 1.049e-4,0 1.1169976,-1.116896 2.4819912,-2.481991 z"
     id="path5785"
     inkscape:connector-curvature="0" /><path
     style="fill:#083e88;fill-opacity:1;stroke:none"
     d="m 6.0531253,16.490825 -2.4468469,-2.447034 4.8852347,0 c 2.6868789,0 4.8852349,0.004 4.8852349,0.0088 0,0.0049 -1.097275,1.106023 -2.438388,2.447034 L 8.4999722,18.937859 6.0531253,16.490825 Z"
     id="path5787"
     inkscape:connector-curvature="0" /></svg>