<?xml version="1.0" encoding="UTF-8" standalone="no"?>
<!-- Generator: Adobe Illustrator 18.1.1, SVG Export Plug-In . SVG Version: 6.00 Build 0)  -->

<svg
   xmlns:dc="http://purl.org/dc/elements/1.1/"
   xmlns:cc="http://creativecommons.org/ns#"
   xmlns:rdf="http://www.w3.org/1999/02/22-rdf-syntax-ns#"
   xmlns:svg="http://www.w3.org/2000/svg"
   xmlns="http://www.w3.org/2000/svg"
   xmlns:sodipodi="http://sodipodi.sourceforge.net/DTD/sodipodi-0.dtd"
   xmlns:inkscape="http://www.inkscape.org/namespaces/inkscape"
   version="1.1"
   id="Layer_1"
   x="0px"
   y="0px"
   width="17px"
   height="33px"
   viewBox="0 0 17 33"
   enable-background="new 0 0 17 33"
   xml:space="preserve"
   inkscape:version="0.91 r13725"
   sodipodi:docname="tab-sel-menu.svg"><metadata
     id="metadata15"><rdf:RDF><cc:Work
         rdf:about=""><dc:format>image/svg+xml</dc:format><dc:type
           rdf:resource="http://purl.org/dc/dcmitype/StillImage" /></cc:Work></rdf:RDF></metadata><defs
     id="defs13" /><sodipodi:namedview
     pagecolor="#ffffff"
     bordercolor="#666666"
     borderopacity="1"
     objecttolerance="10"
     gridtolerance="10"
     guidetolerance="10"
     inkscape:pageopacity="0"
     inkscape:pageshadow="2"
     inkscape:window-width="1366"
     inkscape:window-height="706"
     id="namedview11"
     showgrid="false"
     inkscape:zoom="20.227539"
     inkscape:cx="6.9756954"
     inkscape:cy="15.780826"
     inkscape:window-x="-8"
     inkscape:window-y="-8"
     inkscape:window-maximized="1"
     inkscape:current-layer="Layer_1" /><rect
     x="0"
     y="8"
     width="17"
     height="17"
     id="rect3"
     style="fill:#ffffff" /><polygon
     fill="#007074"
     points="3.558,14.029 13.442,14.029 8.5,18.971 "
     id="polygon9" /><path
     style="fill:#083e88;fill-opacity:1;stroke:none"
     d="m 6.0689696,16.487197 -2.4244586,-2.422139 4.8714281,0 4.8714289,0 -2.422062,2.42244 c -1.3321341,1.332342 -2.4332705,2.422305 -2.4469696,2.422139 -0.0137,-1.63e-4 -1.1159145,-1.090263 -2.4493668,-2.42244 z"
     id="path5751"
     inkscape:connector-curvature="0" /><path
     style="fill:#e9f4f8;fill-opacity:1;stroke:none"
     d="m -0.0345494,16.512217 0,-8.5279776 8.5279776,0 8.5279778,0 0,8.5279776 0,8.527978 -8.5279778,0 -8.5279776,0 0,-8.527978 z m 11.0492924,-0.02472 2.471507,-2.471877 -4.955929,0 c -2.7257611,0 -4.9559291,0.0166 -4.9559291,0.03689 0,0.0566 4.8622973,4.906863 4.9190344,4.906863 0.027396,0 1.1619886,-1.112345 2.5213167,-2.471878 z"
     id="path5753"
     inkscape:connector-curvature="0" /><path
     style="fill:#ffffff;fill-opacity:1;stroke:none"
     d="m -0.0345494,16.512217 0,-8.5279776 8.5279776,0 8.5279778,0 0,8.5279776 0,8.527978 -8.5279778,0 -8.5279776,0 0,-8.527978 z m 11.1974084,-0.169836 2.323367,-2.32676 -4.9641566,0 c -2.7302862,0 -4.9548872,0.01058 -4.9435578,0.02351 0.011329,0.01293 1.1199529,1.124217 2.4636076,2.46953 l 2.443009,2.446025 0.1771812,-0.14277 c 0.09745,-0.07852 1.2226969,-1.189812 2.5005496,-2.46953 z"
     id="path5805"
     inkscape:connector-curvature="0" /></svg>