<?xml version="1.0" encoding="UTF-8" standalone="no"?>
<!-- Generator: Adobe Illustrator 18.1.1, SVG Export Plug-In . SVG Version: 6.00 Build 0)  -->

<svg
   xmlns:dc="http://purl.org/dc/elements/1.1/"
   xmlns:cc="http://creativecommons.org/ns#"
   xmlns:rdf="http://www.w3.org/1999/02/22-rdf-syntax-ns#"
   xmlns:svg="http://www.w3.org/2000/svg"
   xmlns="http://www.w3.org/2000/svg"
   xmlns:sodipodi="http://sodipodi.sourceforge.net/DTD/sodipodi-0.dtd"
   xmlns:inkscape="http://www.inkscape.org/namespaces/inkscape"
   version="1.1"
   id="Layer_1"
   x="0px"
   y="0px"
   width="4px"
   height="33px"
   viewBox="0 0 4 33"
   enable-background="new 0 0 4 33"
   xml:space="preserve"
   inkscape:version="0.91 r13725"
   sodipodi:docname="tab-unsel-left.svg"><metadata
     id="metadata11"><rdf:RDF><cc:Work
         rdf:about=""><dc:format>image/svg+xml</dc:format><dc:type
           rdf:resource="http://purl.org/dc/dcmitype/StillImage" /></cc:Work></rdf:RDF></metadata><defs
     id="defs9" /><sodipodi:namedview
     pagecolor="#ffffff"
     bordercolor="#666666"
     borderopacity="1"
     objecttolerance="10"
     gridtolerance="10"
     guidetolerance="10"
     inkscape:pageopacity="0"
     inkscape:pageshadow="2"
     inkscape:window-width="1366"
     inkscape:window-height="706"
     id="namedview7"
     showgrid="false"
     inkscape:zoom="22.627417"
     inkscape:cx="-9.7695204"
     inkscape:cy="14.803795"
     inkscape:window-x="-8"
     inkscape:window-y="-8"
     inkscape:window-maximized="1"
     inkscape:current-layer="Layer_1" /><path
     d="M 1.0310981,35 1,9.1392917 C 1,8.570369 1.1000972,7.9992953 1.3381924,7.4938253 1.7006803,6.7216391 2.4781341,6 4,6 l 0,29 -2.9689019,0 z"
     id="path5"
     inkscape:connector-curvature="0"
     style="fill:#4db7bb" /><rect
     style="fill:#4db7bb;fill-opacity:1;stroke:none"
     id="rect4139"
     width="1"
     height="29"
     x="3.98"
     y="6" /><path
     style="fill:#b8def1;fill-opacity:1;stroke:none"
     d="m 2.5149739,35.010571 -1.4908296,-0.01291 -0.012161,-3.81116 C 1.0052952,29.090357 1.0000446,23.109492 1.0003157,17.895685 1.0008721,7.1917528 0.9647617,8.2499293 1.3569892,7.4437626 1.6323258,6.8778483 1.9955633,6.5196181 2.5480735,6.2690981 2.9901626,6.0686453 3.3389449,6.0075967 4.2157925,5.977191 l 0.7845131,-0.027204 -0.011115,14.5354699 -0.011115,14.53547 -0.4861359,0.0013 c -0.2673748,7.02e-4 -1.1570093,-0.0045 -1.9769656,-0.01164 l 0,-2e-6 z"
     id="path5769"
     inkscape:connector-curvature="0" /></svg>